<svg width="22" height="22" viewBox="0 0 22 22" fill="none" xmlns="http://www.w3.org/2000/svg">
<path d="M11.0001 20.8543C10.386 20.8543 9.76265 20.6984 9.21265 20.3776L3.76765 17.2334C2.66765 16.5917 1.98015 15.4092 1.98015 14.1351V7.86511C1.98015 6.59094 2.66765 5.40843 3.76765 4.76677L9.21265 1.62261C10.3126 0.980941 11.6785 0.980941 12.7876 1.62261L18.2326 4.76677C19.3326 5.40843 20.0201 6.59094 20.0201 7.86511V14.1351C20.0201 15.4092 19.3326 16.5917 18.2326 17.2334L12.7876 20.3776C12.2376 20.6984 11.6143 20.8543 11.0001 20.8543ZM11.0001 2.52092C10.6243 2.52092 10.2393 2.62176 9.90015 2.81426L4.45515 5.95842C3.77682 6.35259 3.35515 7.07677 3.35515 7.86511V14.1351C3.35515 14.9142 3.77682 15.6476 4.45515 16.0418L9.90015 19.1859C10.5785 19.5801 11.4218 19.5801 12.1001 19.1859L17.5451 16.0418C18.2235 15.6476 18.6451 14.9234 18.6451 14.1351V7.86511C18.6451 7.08594 18.2235 6.35259 17.5451 5.95842L12.1001 2.81426C11.761 2.62176 11.376 2.52092 11.0001 2.52092Z" fill="#AAAAAA"/>
<path d="M10.9999 10.7709C9.44159 10.7709 8.17659 9.50589 8.17659 7.94756C8.17659 6.38923 9.44159 5.12427 10.9999 5.12427C12.5583 5.12427 13.8233 6.38923 13.8233 7.94756C13.8233 9.50589 12.5583 10.7709 10.9999 10.7709ZM10.9999 6.49927C10.2024 6.49927 9.55159 7.15006 9.55159 7.94756C9.55159 8.74506 10.2024 9.39591 10.9999 9.39591C11.7974 9.39591 12.4483 8.74506 12.4483 7.94756C12.4483 7.15006 11.7974 6.49927 10.9999 6.49927Z" fill="#AAAAAA"/>
<path d="M14.6667 15.9592C14.2908 15.9592 13.9792 15.6476 13.9792 15.2717C13.9792 14.0067 12.6408 12.9709 11 12.9709C9.35916 12.9709 8.02083 14.0067 8.02083 15.2717C8.02083 15.6476 7.70916 15.9592 7.33333 15.9592C6.95749 15.9592 6.64583 15.6476 6.64583 15.2717C6.64583 13.2459 8.59833 11.5959 11 11.5959C13.4017 11.5959 15.3542 13.2459 15.3542 15.2717C15.3542 15.6476 15.0425 15.9592 14.6667 15.9592Z" fill="#AAAAAA"/>
</svg>
