<svg width="39" height="32" viewBox="0 0 39 32" fill="none" xmlns="http://www.w3.org/2000/svg">
<path d="M31.2581 15.6357C31.255 19.2484 30.0015 22.7485 27.7107 25.5412C25.4199 28.3339 22.2331 30.2468 18.692 30.9548C15.1509 31.6628 11.4739 31.1222 8.28617 29.4249C5.09841 27.7276 2.59651 24.9783 1.20571 21.6443C0.405275 19.7425 -0.00474246 17.6992 4.13832e-05 15.6357C4.13832e-05 11.4889 1.64667 7.51186 4.57767 4.57959C7.50868 1.64733 11.484 0 15.629 0C19.7741 0 23.7494 1.64733 26.6804 4.57959C29.6114 7.51186 31.2581 11.4889 31.2581 15.6357Z" fill="#FF7E64"/>
<path d="M31.2581 15.6357C31.255 19.2484 30.0015 22.7485 27.7107 25.5412C25.4199 28.3339 22.2331 30.2468 18.692 30.9548C15.1509 31.6628 11.4739 31.1222 8.28617 29.4249C5.09841 27.7276 2.59651 24.9783 1.20571 21.6443C0.405275 19.7425 -0.00474246 17.6992 4.13832e-05 15.6357C4.13832e-05 11.4889 1.64667 7.51186 4.57767 4.57959C7.50868 1.64733 11.484 0 15.629 0C19.7741 0 23.7494 1.64733 26.6804 4.57959C29.6114 7.51186 31.2581 11.4889 31.2581 15.6357Z" stroke="white"/>
<path opacity="0.4" d="M21.3672 14.5796V21.0111C21.3672 22.4356 21.011 23.1478 19.2305 23.1478H12.8203C11.0397 23.1478 10.6836 22.4356 10.6836 21.0111V14.5796C10.7976 14.5938 10.9186 14.601 11.0397 14.601H21.011C21.1321 14.601 21.2532 14.5938 21.3672 14.5796Z" fill="white"/>
<path d="M23.1478 11.0397V12.4641C23.1478 13.7675 22.5567 14.4727 21.3672 14.5795C21.2533 14.5937 21.1322 14.6009 21.0111 14.6009H11.0398C10.9187 14.6009 10.7976 14.5937 10.6837 14.5795C9.49423 14.4727 8.90308 13.7675 8.90308 12.4641V11.0397C8.90308 9.61519 9.61531 8.90295 11.0398 8.90295H21.0111C22.4356 8.90295 23.1478 9.61519 23.1478 11.0397Z" fill="white"/>
<path d="M17.3215 17.984H14.729C14.437 17.984 14.1948 17.7418 14.1948 17.4498C14.1948 17.1578 14.437 16.9156 14.729 16.9156H17.3215C17.6136 16.9156 17.8557 17.1578 17.8557 17.4498C17.8557 17.7418 17.6136 17.984 17.3215 17.984Z" fill="white"/>
<path d="M29.5 12.5L25 10V7.5H28L29.5 4L34.5 6V7.5L29.5 12.5Z" fill="white"/>
<path d="M30 1.5C25.8675 1.5 22.5 4.8675 22.5 9C22.5 13.1325 25.8675 16.5 30 16.5C34.1325 16.5 37.5 13.1325 37.5 9C37.5 4.8675 34.1325 1.5 30 1.5ZM33.585 7.275L29.3325 11.5275C29.2275 11.6325 29.085 11.6925 28.935 11.6925C28.785 11.6925 28.6425 11.6325 28.5375 11.5275L26.415 9.405C26.1975 9.1875 26.1975 8.8275 26.415 8.61C26.6325 8.3925 26.9925 8.3925 27.21 8.61L28.935 10.335L32.79 6.48C33.0075 6.2625 33.3675 6.2625 33.585 6.48C33.8025 6.6975 33.8025 7.05 33.585 7.275Z" fill="#019B89"/>
</svg>
