<svg width="22" height="22" viewBox="0 0 22 22" fill="none" xmlns="http://www.w3.org/2000/svg">
<path d="M10.5419 20.8542C9.81773 20.8542 9.13024 20.4784 8.65357 19.8367L7.71855 18.6084C7.52605 18.3517 7.2694 18.205 6.9944 18.1867C6.72857 18.1684 6.44443 18.2967 6.21526 18.5259C5.42693 19.3692 4.65688 19.7725 3.93271 19.7542C3.43771 19.7359 3.00688 19.5159 2.67688 19.1125C2.64022 19.0667 2.60357 19.0025 2.57607 18.9384C2.21857 18.1684 2.05356 17.1234 2.05356 15.5559V6.46253C2.05356 4.89503 2.21857 3.8592 2.57607 3.08003C2.60357 3.02503 2.63105 2.97003 2.67688 2.9242C2.99772 2.5117 3.42859 2.2917 3.92359 2.2642C4.65693 2.2367 5.43608 2.65836 6.20609 3.48336C6.43525 3.73086 6.71023 3.85003 6.98523 3.8317C7.26023 3.81336 7.51688 3.6667 7.70938 3.41003L8.64439 2.17253C9.12106 1.53086 9.80856 1.15503 10.5327 1.15503C11.2569 1.15503 11.9444 1.53086 12.4211 2.17253L13.3469 3.40086C13.5394 3.6667 13.8052 3.81336 14.0894 3.8317C14.3552 3.85003 14.6394 3.7217 14.8685 3.48336C15.6202 2.6767 16.3627 2.2642 17.0777 2.2642C17.5911 2.2642 18.0677 2.49336 18.3977 2.9242C18.4344 2.97003 18.4711 3.02503 18.4986 3.0892C18.8561 3.8592 19.0211 4.9042 19.0211 6.4717V15.565C19.0211 17.1325 18.8561 18.1684 18.4986 18.9475C18.4619 19.03 18.4161 19.1034 18.3519 19.1675C18.0678 19.5342 17.6002 19.7634 17.0777 19.7634C16.3627 19.7634 15.6202 19.3509 14.8685 18.5442C14.6485 18.3059 14.3461 18.1775 14.0894 18.1959C13.8052 18.2142 13.5486 18.3609 13.3469 18.6267L12.4211 19.855C11.9536 20.4784 11.2661 20.8542 10.5419 20.8542ZM6.94858 16.8025C6.98525 16.8025 7.03109 16.8025 7.06775 16.8025C7.74609 16.8392 8.37855 17.1967 8.80939 17.7742L9.7444 19.0117C10.1936 19.6167 10.8719 19.6167 11.321 19.0209L12.2469 17.7925C12.6869 17.2059 13.3286 16.8575 14.0069 16.8209C14.6853 16.7842 15.3636 17.0684 15.8586 17.6C16.5369 18.3242 16.9494 18.3792 17.0594 18.3792C17.1327 18.3792 17.1969 18.3609 17.2611 18.3059C17.5177 17.7284 17.6277 16.8575 17.6277 15.5559V6.46253C17.6277 5.1792 17.5086 4.30836 17.2611 3.73086C17.1877 3.64836 17.1144 3.6392 17.0594 3.6392C16.9494 3.6392 16.5369 3.6942 15.8586 4.41836C15.3636 4.95003 14.6853 5.2342 14.0069 5.19753C13.3194 5.16086 12.6777 4.80336 12.2377 4.22586L11.3119 2.99753C10.8628 2.39253 10.1844 2.39253 9.73523 2.99753L8.80021 4.2442C8.36938 4.8217 7.73691 5.17003 7.05858 5.2067C6.38024 5.24336 5.70189 4.9592 5.20689 4.4367C4.64773 3.8317 4.21693 3.63003 3.97859 3.6392C3.92359 3.6392 3.85941 3.65753 3.78607 3.73086C3.53857 4.30836 3.41938 5.1792 3.41938 6.46253V15.5559C3.41938 16.8484 3.53857 17.7192 3.78607 18.2967C3.86857 18.37 3.92359 18.3792 3.97859 18.3884C4.20776 18.3975 4.63855 18.1959 5.19772 17.6C5.68355 17.0775 6.31608 16.8025 6.94858 16.8025Z" fill="#AAAAAA"/>
<path d="M14.6667 10.0833H7.33334C6.95751 10.0833 6.64584 9.77159 6.64584 9.39575C6.64584 9.01992 6.95751 8.70825 7.33334 8.70825H14.6667C15.0425 8.70825 15.3542 9.01992 15.3542 9.39575C15.3542 9.77159 15.0425 10.0833 14.6667 10.0833Z" fill="#AAAAAA"/>
<path d="M12.8333 13.2917H7.33334C6.95751 13.2917 6.64584 12.9801 6.64584 12.6042C6.64584 12.2284 6.95751 11.9167 7.33334 11.9167H12.8333C13.2092 11.9167 13.5208 12.2284 13.5208 12.6042C13.5208 12.9801 13.2092 13.2917 12.8333 13.2917Z" fill="#AAAAAA"/>
</svg>
