<svg width="162" height="162" viewBox="0 0 162 162" fill="none" xmlns="http://www.w3.org/2000/svg">
<path d="M81 154.406C121.541 154.406 154.406 121.541 154.406 81C154.406 40.4588 121.541 7.59375 81 7.59375C40.4588 7.59375 7.59375 40.4588 7.59375 81C7.59375 121.541 40.4588 154.406 81 154.406Z" fill="#8EABCD"/>
<path d="M81 7.59375C66.4817 7.59385 52.2895 11.8991 40.218 19.9651C28.1465 28.0311 18.7379 39.4955 13.182 52.9087C7.62606 66.3219 6.17237 81.0814 9.00472 95.3207C11.8371 109.56 18.8283 122.64 29.0942 132.906L132.906 29.0942C126.097 22.2676 118.006 16.8538 109.099 13.164C100.191 9.47427 90.6417 7.58124 81 7.59375Z" fill="#A5C2E3"/>
<path d="M127.102 51.7489C125.203 49.8515 122.629 48.7857 119.944 48.7857C117.26 48.7857 114.686 49.8515 112.787 51.7489L73.4062 91.125L59.0869 76.8057C57.1881 74.9069 54.6126 73.8401 51.9273 73.8401C49.2419 73.8401 46.6665 74.9069 44.7676 76.8057C42.8688 78.7046 41.802 81.28 41.802 83.9654C41.802 86.6507 42.8688 89.2261 44.7676 91.125L66.2478 112.603C68.1462 114.498 70.7195 115.563 73.4024 115.563C76.0853 115.563 78.6586 114.498 80.557 112.603L127.112 66.0656C129.008 64.1672 130.072 61.594 130.072 58.911C130.072 56.2281 129.008 53.6549 127.112 51.7565L127.102 51.7489Z" fill="white"/>
<path d="M75.9376 20.45C75.2663 20.4762 74.612 20.2346 74.1188 19.7784C73.6256 19.3222 73.3338 18.6888 73.3076 18.0174C73.2814 17.3461 73.523 16.6919 73.9792 16.1987C74.4354 15.7054 75.0688 15.4137 75.7401 15.3875C77.4904 15.2563 79.2449 15.1896 81.0001 15.1875C81.6714 15.1875 82.3152 15.4542 82.7899 15.9289C83.2646 16.4036 83.5313 17.0474 83.5313 17.7188C83.5313 18.3901 83.2646 19.0339 82.7899 19.5086C82.3152 19.9833 81.6714 20.25 81.0001 20.25C79.3851 20.25 77.7474 20.3133 76.1376 20.4424L75.9376 20.45ZM17.7188 83.5312C17.0475 83.5312 16.4037 83.2646 15.929 82.7899C15.4543 82.3152 15.1876 81.6713 15.1876 81C15.1646 66.2866 20.0818 51.9915 29.1511 40.4057C38.2204 28.8199 50.9166 20.6142 65.2051 17.1037C65.8573 16.9425 66.5468 17.0471 67.1219 17.3943C67.697 17.7416 68.1106 18.3031 68.2717 18.9553C68.4328 19.6075 68.3282 20.297 67.981 20.8721C67.6338 21.4472 67.0723 21.8608 66.4201 22.0219C53.2318 25.2632 41.5131 32.8374 33.1417 43.5312C24.7703 54.225 20.2306 67.4192 20.2501 81C20.2501 81.6713 19.9834 82.3152 19.5087 82.7899C19.034 83.2646 18.3902 83.5312 17.7188 83.5312Z" fill="#F1F2F2"/>
</svg>
