<svg width="28" height="28" viewBox="0 0 28 28" fill="none" xmlns="http://www.w3.org/2000/svg">
<circle cx="14" cy="14" r="14" fill="#00489A"/>
<path d="M20.6466 18.22C20.6466 18.46 20.5933 18.7067 20.4799 18.9467C20.3666 19.1867 20.2199 19.4134 20.0266 19.6267C19.6999 19.9867 19.3399 20.2467 18.9333 20.4134C18.5333 20.58 18.0999 20.6667 17.6333 20.6667C16.9533 20.6667 16.2266 20.5067 15.4599 20.18C14.6933 19.8534 13.9266 19.4134 13.1666 18.86C12.3999 18.3 11.6733 17.68 10.9799 16.9934C10.2933 16.3 9.67325 15.5734 9.11992 14.8134C8.57325 14.0534 8.13325 13.2934 7.81325 12.54C7.49325 11.78 7.33325 11.0534 7.33325 10.36C7.33325 9.90671 7.41325 9.47337 7.57325 9.07337C7.73325 8.66671 7.98659 8.29337 8.33992 7.96004C8.76659 7.54004 9.23325 7.33337 9.72659 7.33337C9.91325 7.33337 10.0999 7.37337 10.2666 7.45337C10.4399 7.53337 10.5933 7.65337 10.7133 7.82671L12.2599 10.0067C12.3799 10.1734 12.4666 10.3267 12.5266 10.4734C12.5866 10.6134 12.6199 10.7534 12.6199 10.88C12.6199 11.04 12.5733 11.2 12.4799 11.3534C12.3933 11.5067 12.2666 11.6667 12.1066 11.8267L11.5999 12.3534C11.5266 12.4267 11.4933 12.5134 11.4933 12.62C11.4933 12.6734 11.4999 12.72 11.5133 12.7734C11.5333 12.8267 11.5533 12.8667 11.5666 12.9067C11.6866 13.1267 11.8933 13.4134 12.1866 13.76C12.4866 14.1067 12.8066 14.46 13.1533 14.8134C13.5133 15.1667 13.8599 15.4934 14.2133 15.7934C14.5599 16.0867 14.8466 16.2867 15.0733 16.4067C15.1066 16.42 15.1466 16.44 15.1933 16.46C15.2466 16.48 15.2999 16.4867 15.3599 16.4867C15.4733 16.4867 15.5599 16.4467 15.6333 16.3734L16.1399 15.8734C16.3066 15.7067 16.4666 15.58 16.6199 15.5C16.7733 15.4067 16.9266 15.36 17.0933 15.36C17.2199 15.36 17.3533 15.3867 17.4999 15.4467C17.6466 15.5067 17.7999 15.5934 17.9666 15.7067L20.1733 17.2734C20.3466 17.3934 20.4666 17.5334 20.5399 17.7C20.6066 17.8667 20.6466 18.0334 20.6466 18.22Z" fill="white"/>
</svg>
