<svg width="60" height="60" viewBox="0 0 60 60" fill="none" xmlns="http://www.w3.org/2000/svg">
<path opacity="0.4" d="M29.8276 5.1803C23.37 5.1803 18.1201 10.4302 18.1201 16.8878C18.1201 23.2222 23.0742 28.3488 29.5318 28.5706C29.729 28.546 29.9262 28.546 30.0741 28.5706C30.1234 28.5706 30.148 28.5706 30.1973 28.5706C30.222 28.5706 30.222 28.5706 30.2466 28.5706C36.5563 28.3488 41.5105 23.2222 41.5351 16.8878C41.5351 10.4302 36.2852 5.1803 29.8276 5.1803Z" fill="white"/>
<path d="M42.3484 35.1269C35.4718 30.5425 24.2573 30.5425 17.3314 35.1269C14.2011 37.2219 12.4758 40.0564 12.4758 43.088C12.4758 46.1196 14.2011 48.9294 17.3067 50.9998C20.7573 53.3167 25.2925 54.4751 29.8276 54.4751C34.3627 54.4751 38.8978 53.3167 42.3484 50.9998C45.454 48.9048 47.1793 46.095 47.1793 43.0387C47.1547 40.0071 45.454 37.1973 42.3484 35.1269Z" fill="white"/>
</svg>
