<svg width="293" height="117" viewBox="0 0 293 117" fill="none" xmlns="http://www.w3.org/2000/svg">
<path d="M217.097 41.2814L155.546 97.8833L94.0005 41.2814L150.171 1.70345C153.394 -0.56772 157.697 -0.567835 160.921 1.70322L217.097 41.2814Z" fill="#F7991E"/>
<path d="M206.245 97.8833H104.852V20.6566C104.852 19.0411 106.161 17.7314 107.777 17.7314H203.32C204.936 17.7314 206.245 19.0411 206.245 20.6566V97.8833Z" fill="#FAF3EA"/>
<path d="M195.382 29.484H115.715V31.9194H195.382V29.484Z" fill="#EEDEC8"/>
<path d="M183.319 37.6442H115.715V40.0795H183.319V37.6442Z" fill="#EEDEC8"/>
<path d="M163.413 45.8038H115.715V48.2392H163.413V45.8038Z" fill="#EEDEC8"/>
<path d="M195.382 53.9641H115.715V56.3995H195.382V53.9641Z" fill="#EEDEC8"/>
<path d="M94 41.2839L176.064 116.749H100.282C96.8128 116.749 94 113.936 94 110.467V41.2839Z" fill="url(#paint0_linear_780_1493)"/>
<path d="M217.096 41.2839L135.032 116.749H210.814C214.283 116.749 217.096 113.936 217.096 110.467V41.2839Z" fill="url(#paint1_linear_780_1493)"/>
<path d="M70.3615 30.4753C70.3858 29.6568 70.2052 28.8494 69.7392 28.1684C68.9038 26.9477 67.37 26.3556 65.8918 26.2965C64.4137 26.2375 62.9598 26.6361 61.5344 27.0312C63.9676 25.0657 65.3228 21.8399 65.0229 18.7262C64.7227 15.6125 62.7772 12.7047 60.0127 11.2401C57.0995 9.69612 53.5737 9.76998 50.3602 10.5074C42.831 12.2343 36.2089 17.5486 32.8924 24.5249C28.0841 20.3917 21.399 18.5351 15.1484 19.5965C8.89738 20.6581 3.19986 24.6174 0.0251517 30.1057L0 30.4753H70.3615ZM292.729 64.0666L292.124 62.5009C291.697 61.3932 291.239 60.2403 290.347 59.4564C289.455 58.6725 287.99 58.4036 287.1 59.1896C288.626 57.073 289.023 54.188 288.124 51.7382C287.225 49.2882 285.057 47.3442 282.524 46.7172C279.756 46.0321 276.856 46.8573 274.162 47.7925C271.43 48.7413 268.694 49.8364 266.433 51.6402C264.172 53.444 262.416 56.0649 262.254 58.9528C255.701 56.6154 248.572 55.9137 241.69 56.9289C239.61 57.2358 237.5 57.7177 235.739 58.8669C233.978 60.0161 232.61 61.9483 232.624 64.0511L232.817 64.0666H292.729Z" fill="#FAF3EA"/>
<defs>
<linearGradient id="paint0_linear_780_1493" x1="94.0003" y1="79.0165" x2="176.064" y2="79.0165" gradientUnits="userSpaceOnUse">
<stop offset="0.004" stop-color="#FCDCB3"/>
<stop offset="1" stop-color="#FCCC8E"/>
</linearGradient>
<linearGradient id="paint1_linear_780_1493" x1="135.032" y1="79.0165" x2="217.096" y2="79.0165" gradientUnits="userSpaceOnUse">
<stop offset="0.004" stop-color="#FCDCB3"/>
<stop offset="1" stop-color="#FCCC8E"/>
</linearGradient>
</defs>
</svg>
