<svg width="32" height="32" viewBox="0 0 32 32" fill="none" xmlns="http://www.w3.org/2000/svg">
<rect x="5.33333" y="6.6665" width="21.3333" height="20" fill="white"/>
<path d="M21.3333 2.6665H10.6667C5.33333 2.6665 2.66667 5.33317 2.66667 10.6665V27.9998C2.66667 28.7332 3.26667 29.3332 4 29.3332H21.3333C26.6667 29.3332 29.3333 26.6665 29.3333 21.3332V10.6665C29.3333 5.33317 26.6667 2.6665 21.3333 2.6665ZM14.8133 22.2132C14.48 22.5465 13.8667 22.8532 13.4133 22.9198L10.64 23.3065C10.5333 23.3198 10.4267 23.3332 10.3333 23.3332C9.86667 23.3332 9.44 23.1732 9.13333 22.8665C8.76 22.4932 8.6 21.9465 8.69333 21.3598L9.08 18.5865C9.14667 18.1332 9.45333 17.5065 9.78667 17.1865L14.8133 12.1598C14.8933 12.3998 15 12.6398 15.12 12.9065C15.24 13.1465 15.36 13.3865 15.4933 13.6132C15.6 13.7998 15.72 13.9865 15.8267 14.1198C15.96 14.3198 16.0933 14.4932 16.1867 14.5865C16.24 14.6665 16.2933 14.7198 16.3067 14.7465C16.6 15.0798 16.9067 15.3998 17.2 15.6398C17.28 15.7198 17.3333 15.7598 17.3467 15.7732C17.52 15.9065 17.68 16.0532 17.84 16.1465C18.0133 16.2798 18.2 16.3998 18.3867 16.5065C18.6133 16.6398 18.8533 16.7732 19.1067 16.8932C19.36 17.0132 19.6 17.1065 19.84 17.1865L14.8133 22.2132ZM22.0667 14.9732L21.0267 16.0132C20.96 16.0798 20.8667 16.1198 20.7733 16.1198C20.7467 16.1198 20.6933 16.1198 20.6667 16.1065C18.3733 15.4532 16.5467 13.6265 15.8933 11.3332C15.8533 11.2132 15.8933 11.0798 15.9867 10.9865L17.04 9.93317C18.76 8.21317 20.3867 8.25317 22.0667 9.93317C22.92 10.7865 23.3467 11.6132 23.3333 12.4665C23.3333 13.3065 22.92 14.1198 22.0667 14.9732Z" fill="#1953A0"/>
</svg>
