<svg width="22" height="22" viewBox="0 0 22 22" fill="none" xmlns="http://www.w3.org/2000/svg">
<path d="M19.1217 7.67244L12.7692 2.59411C11.7883 1.80578 10.2025 1.80578 9.23084 2.58494L2.87834 7.67244C2.16334 8.24078 1.70501 9.44161 1.86084 10.3399L3.08001 17.6366C3.30001 18.9383 4.54668 19.9924 5.86668 19.9924H16.1333C17.4442 19.9924 18.7 18.9291 18.92 17.6366L20.1392 10.3399C20.2858 9.44161 19.8275 8.24078 19.1217 7.67244ZM11 14.2083C9.73501 14.2083 8.70834 13.1816 8.70834 11.9166C8.70834 10.6516 9.73501 9.62494 11 9.62494C12.265 9.62494 13.2917 10.6516 13.2917 11.9166C13.2917 13.1816 12.265 14.2083 11 14.2083Z" fill="#DC3D3D"/>
</svg>
