<svg width="50" height="50" viewBox="0 0 50 50" fill="none" xmlns="http://www.w3.org/2000/svg">
<path d="M7.48052 12.2791H38.2043V41.3911C38.2043 42.3149 37.8374 43.2008 37.1841 43.8541C36.5309 44.5073 35.6449 44.8743 34.7211 44.8743H7.48052C6.55671 44.8743 5.67075 44.5073 5.01752 43.8541C4.36429 43.2008 3.99731 42.3149 3.99731 41.3911V15.7623C3.99731 14.8385 4.36429 13.9525 5.01752 13.2993C5.67075 12.646 6.55671 12.2791 7.48052 12.2791Z" fill="#A7DBFC"/>
<path d="M35.4785 22.0791V38.8281C35.4785 39.6047 35.17 40.3495 34.6208 40.8987C34.0716 41.4479 33.3268 41.7564 32.5502 41.7564H4.01599C4.10634 42.6122 4.51029 43.4044 5.14999 43.9801C5.78968 44.5558 6.61984 44.8743 7.48044 44.8743H34.7211C35.6449 44.8743 36.5308 44.5073 37.1841 43.8541C37.8373 43.2008 38.2043 42.3149 38.2043 41.3911V12.2791H35.4785V22.0791Z" fill="#76B9DE"/>
<path d="M3.99683 15.7623V28.8384C6.30236 29.4982 8.72954 29.6138 11.0874 29.1763C13.4452 28.7387 15.6693 27.76 17.5846 26.317C19.4999 24.874 21.0542 23.0062 22.1252 20.8605C23.1961 18.7149 23.7545 16.35 23.7563 13.9519C23.7561 13.3931 23.726 12.8347 23.6662 12.2791H7.48042C7.02297 12.279 6.56999 12.3691 6.14735 12.5441C5.72471 12.7191 5.34068 12.9757 5.0172 13.2991C4.69372 13.6226 4.43711 14.0066 4.26203 14.4292C4.08696 14.8518 3.99684 15.3048 3.99683 15.7623Z" fill="#E9FFFF"/>
<path d="M38.2042 29.4367V12.2791H27.9359C27.9008 14.4738 28.3894 18.5255 31.6606 22.9828L35.3747 28.2778C35.6257 28.6357 35.9593 28.9279 36.3473 29.1296C36.7352 29.3314 37.166 29.4367 37.6032 29.4367H38.2042Z" fill="#76B9DE"/>
<path d="M24.8973 25.371H19.7647C19.2061 25.371 18.6703 25.1491 18.2753 24.7541C17.8804 24.3591 17.6584 23.8233 17.6584 23.2647V12.2791H12.4827V25.5901C12.4827 26.9048 13.0049 28.1656 13.9345 29.0952C14.8642 30.0249 16.125 30.5471 17.4397 30.5471H22.5723C23.1308 30.5473 23.6663 30.7693 24.0612 31.1643C24.456 31.5593 24.6778 32.0949 24.6778 32.6534V44.8743H29.8536V30.3279C29.8535 29.0134 29.3313 27.7527 28.4019 26.8231C27.4724 25.8936 26.2118 25.3713 24.8973 25.371Z" fill="white"/>
<path d="M29.8543 41.756H24.6781V44.8743H29.8543V41.756Z" fill="#C0C0C0"/>
<path d="M17.0576 35.3062H3.99683V41.3911C3.99684 41.8486 4.08696 42.3015 4.26203 42.7242C4.43711 43.1468 4.69372 43.5308 5.0172 43.8542C5.34068 44.1777 5.72471 44.4342 6.14735 44.6093C6.56999 44.7843 7.02297 44.8744 7.48042 44.8743H19.1894V37.4383C19.1894 36.8728 18.9648 36.3306 18.5651 35.9307C18.1653 35.5309 17.623 35.3062 17.0576 35.3062Z" fill="#A0C797"/>
<path d="M4.01599 41.756C4.02576 41.8511 4.04031 41.9448 4.05769 42.0376C4.06052 42.0524 4.06267 42.0669 4.0656 42.082C4.07244 42.1158 4.08054 42.1492 4.08835 42.1826C4.09314 42.2034 4.09753 42.2244 4.10271 42.2451C4.11062 42.2767 4.1197 42.3077 4.12849 42.3389C4.13474 42.3611 4.1407 42.3833 4.14734 42.4053C4.15652 42.4355 4.16687 42.4653 4.17664 42.4951C4.18416 42.5176 4.19138 42.5401 4.19939 42.5622C4.20974 42.5915 4.22078 42.6199 4.23191 42.6486C4.2407 42.6712 4.24939 42.6939 4.25857 42.7162C4.27 42.744 4.2821 42.7715 4.29421 42.7989C4.30398 42.8215 4.31375 42.844 4.32468 42.8663C4.33725 42.8932 4.35027 42.9198 4.36375 42.9464C4.37488 42.9686 4.38611 42.9906 4.39763 43.0125C4.41137 43.0386 4.42546 43.0646 4.43992 43.0906C4.45203 43.1123 4.4644 43.1339 4.47703 43.1553C4.49187 43.1804 4.50632 43.2053 4.52214 43.23C4.53552 43.2515 4.54929 43.2727 4.56306 43.2938C4.57878 43.3179 4.5946 43.3419 4.61091 43.3656C4.62527 43.3864 4.64021 43.407 4.65505 43.4276C4.67175 43.4507 4.68845 43.474 4.70574 43.4967C4.72126 43.5171 4.73728 43.537 4.7532 43.5571C4.77078 43.5792 4.78826 43.6014 4.80632 43.6231C4.82302 43.6426 4.84041 43.6621 4.85759 43.6823C4.87478 43.7024 4.89392 43.7242 4.91267 43.7448C4.93142 43.7653 4.94959 43.7838 4.96804 43.8028C4.9865 43.8217 5.00525 43.8418 5.02439 43.8614C5.045 43.8819 5.06638 43.9016 5.08757 43.9215C5.10554 43.9386 5.12312 43.9561 5.14148 43.9728C5.18054 44.0081 5.22039 44.0426 5.26101 44.0763C5.27859 44.0907 5.29675 44.1045 5.31462 44.1187C5.33914 44.1382 5.36345 44.1577 5.38845 44.1767C5.40798 44.1914 5.4283 44.2054 5.44822 44.2198C5.47224 44.237 5.49617 44.2545 5.52058 44.2712C5.54119 44.2853 5.56228 44.2987 5.58328 44.3122C5.60789 44.3282 5.6321 44.3444 5.6574 44.3598C5.67888 44.3731 5.70076 44.3856 5.72253 44.3989C5.74763 44.4136 5.77273 44.4281 5.79832 44.4424C5.82058 44.4547 5.84314 44.4664 5.8657 44.4783C5.89158 44.4918 5.91746 44.5053 5.94382 44.5182C5.96658 44.5294 5.98943 44.5402 6.01218 44.5508C6.03904 44.5633 6.06589 44.5756 6.09314 44.5874C6.11619 44.5972 6.13953 44.607 6.16287 44.6167C6.19041 44.628 6.21804 44.6389 6.24578 44.6494C6.2696 44.6584 6.29343 44.6672 6.31746 44.6758C6.34568 44.6856 6.374 44.6953 6.40242 44.7045C6.42654 44.7123 6.45066 44.72 6.47498 44.7274C6.50427 44.7362 6.53357 44.7444 6.56287 44.7524C6.58699 44.7589 6.61101 44.7656 6.63533 44.7719C6.6657 44.7794 6.69626 44.7863 6.72693 44.793C6.75105 44.7984 6.77498 44.8038 6.79919 44.8086C6.83074 44.8149 6.86267 44.8202 6.89441 44.8256C6.91824 44.8296 6.94187 44.834 6.9658 44.8375C6.99949 44.8425 7.03337 44.8464 7.06736 44.8504C7.08982 44.8532 7.11228 44.8563 7.13494 44.8584C7.17292 44.8622 7.2113 44.8647 7.24959 44.8672C7.26912 44.8685 7.28738 44.8703 7.30642 44.8712C7.36404 44.874 7.42198 44.8755 7.48025 44.8756H19.1894V41.756H4.01599Z" fill="#688F5E"/>
<path d="M38.125 5.12601C33.6758 5.17006 30.2148 8.99672 30.4135 13.4415C30.6566 18.8697 34.6666 24.0646 36.8359 26.4945C37.0083 26.6874 37.2196 26.8416 37.4558 26.9472C37.692 27.0527 37.9479 27.107 38.2066 27.1067C38.4654 27.1063 38.7211 27.0512 38.957 26.9451C39.193 26.8389 39.4038 26.684 39.5757 26.4907C41.8142 23.9825 46.0062 18.5367 46.0062 12.9277C46.0062 11.8964 45.8018 10.8754 45.4048 9.92366C45.0077 8.97191 44.4259 8.10832 43.693 7.38282C42.9601 6.65733 42.0907 6.08433 41.1349 5.69696C40.1792 5.30959 39.1562 5.11553 38.125 5.12601Z" fill="#FF9CB2"/>
<path d="M42.395 6.34766L36.0156 18.3474C35.738 18.8695 35.5674 19.4418 35.514 20.0307C35.4606 20.6196 35.5253 21.2132 35.7044 21.7768L37.3273 26.8829C37.6914 27.0808 38.1118 27.1498 38.5201 27.0786C38.9284 27.0074 39.3006 26.8001 39.5762 26.4906C41.8148 23.9824 46.0068 18.5366 46.0068 12.9276C46.0073 11.6155 45.6765 10.3245 45.0451 9.17422C44.4138 8.02398 43.5022 7.05175 42.395 6.34766Z" fill="#F55F6A"/>
<path d="M39.7687 16.5898C41.8545 15.7258 42.8451 13.3345 41.9811 11.2486C41.1171 9.16271 38.7257 8.17218 36.6398 9.03618C34.554 9.90018 33.5634 12.2915 34.4274 14.3774C35.2914 16.4633 37.6828 17.4538 39.7687 16.5898Z" fill="white"/>
<path d="M34.7211 45.4004C35.7841 45.3993 36.8032 44.9765 37.5549 44.2249C38.3065 43.4733 38.7293 42.4541 38.7305 41.3912V30.6153C38.7305 30.5462 38.7169 30.4778 38.6905 30.414C38.664 30.3502 38.6253 30.2922 38.5764 30.2434C38.5276 30.1945 38.4696 30.1558 38.4058 30.1293C38.342 30.1029 38.2736 30.0893 38.2045 30.0893C38.1354 30.0893 38.0671 30.1029 38.0032 30.1293C37.9394 30.1558 37.8814 30.1945 37.8326 30.2434C37.7838 30.2922 37.745 30.3502 37.7186 30.414C37.6922 30.4778 37.6785 30.5462 37.6785 30.6153V41.3917C37.6777 42.1757 37.3658 42.9274 36.8114 43.4818C36.257 44.0362 35.5054 44.348 34.7213 44.3489H30.3805V30.3281C30.3789 28.8744 29.8007 27.4807 28.7728 26.4528C27.7449 25.4248 26.3512 24.8466 24.8975 24.845H19.7648C19.3458 24.8445 18.9441 24.6779 18.6478 24.3816C18.3515 24.0854 18.1849 23.6837 18.1844 23.2647V15.3142C18.1844 15.1747 18.129 15.0409 18.0303 14.9423C17.9317 14.8436 17.7979 14.7882 17.6584 14.7882C17.5189 14.7882 17.3851 14.8436 17.2865 14.9423C17.1879 15.0409 17.1324 15.1747 17.1324 15.3142V23.2647C17.1332 23.9626 17.4108 24.6316 17.9043 25.1251C18.3978 25.6186 19.0669 25.8961 19.7648 25.8969H24.8973C26.0721 25.8983 27.1984 26.3656 28.029 27.1963C28.8597 28.027 29.327 29.1533 29.3283 30.3281V44.3484H7.48049C6.69646 44.3475 5.94479 44.0357 5.39039 43.4813C4.83599 42.9269 4.52415 42.1752 4.52327 41.3912V15.7624C4.52417 14.9783 4.83603 14.2267 5.39042 13.6723C5.94481 13.1179 6.69647 12.806 7.48049 12.8051H8.93635C9.07585 12.8051 9.20963 12.7497 9.30827 12.6511C9.40691 12.5524 9.46233 12.4186 9.46233 12.2792C9.46233 12.1397 9.40691 12.0059 9.30827 11.9072C9.20963 11.8086 9.07585 11.7532 8.93635 11.7532H7.48049C6.41756 11.7544 5.3985 12.1771 4.64689 12.9287C3.89528 13.6804 3.4725 14.6994 3.47131 15.7624V41.3912C3.47248 42.4541 3.89524 43.4732 4.64685 44.2248C5.39847 44.9765 6.41754 45.3993 7.48049 45.4004H34.7211Z" fill="#333333"/>
<path d="M26.5396 12.805C26.6791 12.805 26.8129 12.7496 26.9115 12.651C27.0102 12.5523 27.0656 12.4186 27.0656 12.2791C27.0656 12.1396 27.0102 12.0058 26.9115 11.9071C26.8129 11.8085 26.6791 11.7531 26.5396 11.7531H12.5178C12.5118 11.7531 12.5061 11.7547 12.5 11.7549C12.494 11.7552 12.4883 11.7531 12.4823 11.7531C12.3428 11.7531 12.209 11.8085 12.1104 11.9071C12.0117 12.0058 11.9563 12.1396 11.9563 12.2791V25.5901C11.9579 27.0438 12.5361 28.4374 13.564 29.4653C14.5919 30.4932 15.9855 31.0714 17.4392 31.073H22.5719C22.9909 31.0734 23.3926 31.2401 23.6889 31.5364C23.9852 31.8327 24.1519 32.2344 24.1523 32.6534V42.0059C24.1523 42.1454 24.2077 42.2792 24.3063 42.3778C24.405 42.4765 24.5388 42.5319 24.6783 42.5319C24.8178 42.5319 24.9516 42.4765 25.0502 42.3778C25.1488 42.2792 25.2042 42.1454 25.2042 42.0059V32.6534C25.2034 31.9555 24.9259 31.2864 24.4324 30.7929C23.9389 30.2994 23.2698 30.0219 22.5719 30.0211H17.4392C16.2644 30.0198 15.138 29.5526 14.3073 28.7219C13.4765 27.8913 13.0092 26.7649 13.0079 25.5901V12.805H26.5396ZM31.3462 9.16715C31.4044 9.20447 31.4693 9.22996 31.5373 9.24217C31.6053 9.25439 31.675 9.25308 31.7425 9.23832C31.81 9.22356 31.8739 9.19565 31.9306 9.15618C31.9873 9.1167 32.0356 9.06644 32.0729 9.00827C32.1474 8.89225 32.2254 8.77741 32.3052 8.66735C32.385 8.55422 32.4169 8.41421 32.3942 8.27768C32.3714 8.14114 32.2957 8.01908 32.1836 7.93796C32.0714 7.85683 31.9318 7.82318 31.795 7.84429C31.6582 7.8654 31.5353 7.93958 31.4528 8.05075C31.3616 8.17682 31.2723 8.30797 31.1874 8.44049C31.1121 8.55792 31.0865 8.70045 31.1163 8.83673C31.1461 8.973 31.2288 9.09186 31.3462 9.16715Z" fill="#333333"/>
<path d="M38.2042 4.59962H38.1709C36.3688 4.6014 34.6168 5.19282 33.1823 6.28361C33.1263 6.32496 33.0791 6.377 33.0434 6.43672C33.0077 6.49644 32.9842 6.56265 32.9743 6.63151C32.9644 6.70037 32.9682 6.77052 32.9856 6.8379C33.0029 6.90527 33.0335 6.96853 33.0755 7.02401C33.1175 7.07949 33.17 7.12609 33.2302 7.16111C33.2903 7.19613 33.3567 7.21887 33.4257 7.22802C33.4947 7.23717 33.5648 7.23254 33.632 7.21441C33.6991 7.19627 33.762 7.16499 33.817 7.12238C35.0702 6.16962 36.6007 5.65307 38.1749 5.65158H38.2042C39.1739 5.65016 40.1336 5.84641 41.0248 6.22832C41.916 6.61024 42.72 7.16981 43.3877 7.87286C44.0893 8.60685 44.6354 9.47495 44.9932 10.4251C45.3511 11.3753 45.5134 12.3879 45.4704 13.4024C45.2444 18.6117 41.4325 23.6215 39.1803 26.1441C39.0585 26.2821 38.9085 26.3925 38.7405 26.4678C38.5725 26.5431 38.3903 26.5815 38.2062 26.5806C38.0209 26.5803 37.8378 26.541 37.6688 26.4651C37.4998 26.3893 37.3487 26.2787 37.2253 26.1404C34.873 23.5059 30.9277 18.285 30.9277 12.9277C30.9274 12.295 31.0095 11.6649 31.1718 11.0534C31.2056 10.9193 31.1851 10.7774 31.115 10.6582C31.0448 10.5391 30.9306 10.4524 30.797 10.4168C30.6633 10.3813 30.5211 10.3998 30.401 10.4683C30.2809 10.5368 30.1927 10.6499 30.1553 10.783C29.9696 11.4828 29.8758 12.2037 29.8762 12.9277C29.8762 18.634 33.9888 24.0942 36.4403 26.8408C36.6615 27.0895 36.9328 27.2886 37.2363 27.4251C37.5399 27.5615 37.8689 27.6323 38.2017 27.6326C38.5345 27.633 38.8637 27.563 39.1675 27.4272C39.4714 27.2914 39.7431 27.0929 39.9649 26.8447C42.3103 24.2178 46.281 18.9834 46.5211 13.4481C46.57 12.2915 46.3848 11.137 45.9767 10.0537C45.5685 8.97042 44.9459 7.98073 44.1459 7.14396C43.3805 6.3383 42.4588 5.69716 41.4372 5.25969C40.4155 4.82223 39.3155 4.59763 38.2042 4.59962Z" fill="#333333"/>
<path d="M38.2043 16.3751C37.2599 16.374 36.3544 15.9983 35.6866 15.3304C35.0189 14.6625 34.6433 13.757 34.6424 12.8126C34.6424 12.6731 34.587 12.5393 34.4883 12.4406C34.3897 12.342 34.2559 12.2866 34.1164 12.2866C33.9769 12.2866 33.8431 12.342 33.7445 12.4406C33.6459 12.5393 33.5904 12.6731 33.5904 12.8126C33.5905 13.8867 33.9653 14.9272 34.6504 15.7545C35.3354 16.5819 36.2876 17.1443 37.3428 17.3449C38.3981 17.5454 39.4902 17.3714 40.431 16.853C41.3717 16.3345 42.1021 15.5041 42.4961 14.5048C42.8902 13.5056 42.9232 12.4001 42.5895 11.3791C42.2559 10.3581 41.5764 9.48555 40.6683 8.91184C39.7603 8.33812 38.6804 8.09924 37.6151 8.23637C36.5497 8.3735 35.5656 8.87806 34.8324 9.66304C34.7391 9.7653 34.6898 9.90024 34.6953 10.0386C34.7008 10.1769 34.7606 10.3076 34.8617 10.4021C34.9629 10.4966 35.0972 10.5475 35.2357 10.5436C35.3741 10.5397 35.5054 10.4815 35.6011 10.3814C35.933 10.0229 36.3358 9.73727 36.7839 9.54261C37.2321 9.34794 37.7157 9.24849 38.2043 9.25054C39.1458 9.25547 40.047 9.63294 40.711 10.3004C41.375 10.9679 41.7478 11.8711 41.7478 12.8126C41.7478 13.7541 41.375 14.6573 40.711 15.3248C40.047 15.9923 39.1458 16.3697 38.2043 16.3747V16.3751ZM19.1895 42.5321C19.329 42.5321 19.4628 42.4766 19.5614 42.378C19.66 42.2793 19.7154 42.1455 19.7154 42.006V37.4383C19.7146 36.7336 19.4343 36.058 18.936 35.5597C18.4376 35.0613 17.762 34.781 17.0572 34.7802H7.0963C6.95803 34.7821 6.82606 34.8384 6.72895 34.9368C6.63184 35.0353 6.57739 35.168 6.57739 35.3063C6.57739 35.4445 6.63184 35.5773 6.72895 35.6757C6.82606 35.7741 6.95803 35.8304 7.0963 35.8323H17.0572C17.4831 35.8327 17.8913 36.0021 18.1924 36.3032C18.4936 36.6043 18.663 37.0125 18.6635 37.4383V42.006C18.6635 42.0751 18.6771 42.1435 18.7035 42.2073C18.7299 42.2712 18.7687 42.3291 18.8175 42.378C18.8663 42.4269 18.9243 42.4656 18.9882 42.492C19.052 42.5185 19.1204 42.5321 19.1895 42.5321Z" fill="#333333"/>
</svg>
