<svg width="30" height="31" viewBox="0 0 30 31" fill="none" xmlns="http://www.w3.org/2000/svg">
<path d="M14.9004 29.2455C7.50039 29.2455 1.46289 23.2205 1.46289 15.808C1.46289 8.39548 7.50039 2.37048 14.9004 2.37048C22.3004 2.37048 28.3379 8.39548 28.3379 15.808C28.3379 23.2205 22.3129 29.2455 14.9004 29.2455ZM14.9004 4.24548C8.52539 4.24548 3.33789 9.43298 3.33789 15.808C3.33789 22.183 8.52539 27.3705 14.9004 27.3705C21.2754 27.3705 26.4629 22.183 26.4629 15.808C26.4629 9.43298 21.2754 4.24548 14.9004 4.24548Z" fill="#336DAE"/>
<path d="M19.9004 16.7455H9.90039C9.38789 16.7455 8.96289 16.3205 8.96289 15.808C8.96289 15.2955 9.38789 14.8705 9.90039 14.8705H19.9004C20.4129 14.8705 20.8379 15.2955 20.8379 15.808C20.8379 16.3205 20.4254 16.7455 19.9004 16.7455Z" fill="#336DAE"/>
</svg>
