<svg width="12" height="14" viewBox="0 0 12 14" fill="none" xmlns="http://www.w3.org/2000/svg">
<path d="M11.25 6C11.25 9.75 6 13.25 6 13.25C6 13.25 0.75 9.75 0.75 6C0.75 4.60761 1.30312 3.27226 2.28769 2.28769C3.27226 1.30312 4.60761 0.75 6 0.75C7.39239 0.75 8.72774 1.30312 9.71231 2.28769C10.6969 3.27226 11.25 4.60761 11.25 6Z" stroke="black" stroke-width="1.5" stroke-linecap="round" stroke-linejoin="round"/>
<path d="M6 7.25C6.69036 7.25 7.25 6.69036 7.25 6C7.25 5.30964 6.69036 4.75 6 4.75C5.30964 4.75 4.75 5.30964 4.75 6C4.75 6.69036 5.30964 7.25 6 7.25Z" fill="black" stroke="black" stroke-width="1.5" stroke-linecap="round" stroke-linejoin="round"/>
</svg>
