<svg width="16" height="16" viewBox="0 0 16 16" fill="none" xmlns="http://www.w3.org/2000/svg">
<path d="M7.33334 11.9587C5.98848 11.7876 4.75924 11.1108 3.89546 10.0659C3.03168 9.021 2.59819 7.6864 2.68308 6.33336C2.76798 4.98032 3.36489 3.71037 4.3525 2.78163C5.34011 1.85289 6.6443 1.33506 8 1.33338C9.35736 1.33236 10.664 1.84893 11.6538 2.77783C12.6435 3.70672 13.2418 4.97804 13.3268 6.33273C13.4118 7.68743 12.9771 9.02356 12.1112 10.0689C11.2454 11.1142 10.0135 11.79 8.66667 11.9587V14H7.33334V11.9587ZM3.33334 14.6667H12.6667V16H3.33334V14.6667Z" fill="black"/>
</svg>
