<svg width="130" height="146" viewBox="0 0 130 146" fill="none" xmlns="http://www.w3.org/2000/svg">
<path d="M88.6743 6.50633C89.4932 6.88846 90.2492 7.39284 90.9165 8.00219C92.2664 9.26358 93.2126 10.8964 93.6359 12.6948C93.6586 11.2236 94.163 9.80035 95.0719 8.64325C95.9808 7.48615 97.244 6.65899 98.668 6.28852C97.5536 6.13735 96.4986 5.69546 95.609 5.00727C94.3449 3.9844 93.4993 2.53377 93.2323 0.929688C93.2153 2.07241 92.8658 3.18544 92.2266 4.13281C91.3751 5.33438 90.1102 6.17952 88.6743 6.50633Z" fill="#FFB833"/>
<path d="M2.21875 57.3752C2.84613 57.6663 3.42516 58.052 3.93563 58.5187C4.97128 59.4819 5.69618 60.7321 6.01766 62.1094C6.05296 60.883 6.51257 59.7068 7.31812 58.7813C8.00069 58.0212 8.89188 57.4786 9.88062 57.2214C9.02702 57.1019 8.21968 56.7606 7.53914 56.2317C6.57102 55.4497 5.92361 54.3395 5.71977 53.1118C5.7038 53.9849 5.43328 54.8343 4.94141 55.5558C4.28819 56.4761 3.319 57.1238 2.21875 57.3752Z" fill="#FFB833"/>
<path d="M95.7788 49.143C96.4056 49.4336 96.9836 49.8193 97.4925 50.2865C98.5259 51.2502 99.2505 52.4987 99.5745 53.874C99.6066 52.647 100.067 51.4697 100.875 50.546C101.556 49.7814 102.447 49.2353 103.437 48.9765C102.585 48.8573 101.779 48.5172 101.099 47.9899C100.13 47.2102 99.481 46.1026 99.2734 44.8765C99.2589 45.7498 98.9883 46.5996 98.4951 47.3205C97.8442 48.2409 96.8773 48.8897 95.7788 49.143Z" fill="#FFB833"/>
<path d="M10.9921 65.4854H120.565V125.819H10.9921V65.4854Z" fill="#FFB833"/>
<path d="M62.572 84.7747L11.0017 65.4855L67.7387 47.7178L120.571 65.4855L62.572 84.7747Z" fill="#FF535C"/>
<path d="M62.572 145.07L11.0017 125.82L67.7419 108.013L120.549 125.82L62.572 145.07Z" fill="#FFB833"/>
<path d="M52.2067 113.926L0.0470276 94.8421L10.9921 65.4983L62.8411 84.8516L52.2067 113.926Z" fill="#FFDB99"/>
<path d="M74.1801 113.273L129.953 91.9944L120.561 65.4822L62.7866 84.7394C66.5855 94.2484 70.3834 103.76 74.1801 113.273Z" fill="#FFDB99"/>
<path d="M69.1833 82.4813C69.1419 82.4813 69.1021 82.4654 69.0723 82.4367C69.0424 82.408 69.0248 82.3689 69.0231 82.3276L67.5625 47.7274C67.5617 47.7064 67.565 47.6854 67.5722 47.6656C67.5795 47.6458 67.5906 47.6277 67.6048 47.6122C67.6191 47.5968 67.6363 47.5843 67.6554 47.5754C67.6746 47.5666 67.6952 47.5617 67.7163 47.5608C67.7372 47.5591 67.7583 47.5617 67.7783 47.5684C67.7982 47.5751 67.8166 47.5859 67.8322 47.6C67.8478 47.6141 67.8604 47.6313 67.8691 47.6504C67.8778 47.6696 67.8825 47.6903 67.8828 47.7114L69.3338 82.3051C69.3347 82.3262 69.3314 82.3472 69.3241 82.3669C69.3169 82.3867 69.3058 82.4048 69.2915 82.4203C69.2772 82.4358 69.26 82.4483 69.2409 82.4571C69.2218 82.4659 69.2011 82.4709 69.1801 82.4717L69.1833 82.4813Z" fill="#383333"/>
<path d="M62.572 145.231C62.5295 145.231 62.4888 145.214 62.4588 145.184C62.4287 145.154 62.4119 145.113 62.4119 145.07L62.6265 84.7395C62.6273 84.6973 62.6444 84.657 62.6743 84.6272C62.7041 84.5973 62.7444 84.5802 62.7866 84.5793C62.8077 84.5798 62.8284 84.5843 62.8477 84.5928C62.867 84.6012 62.8844 84.6133 62.899 84.6285C62.9135 84.6437 62.925 84.6616 62.9326 84.6812C62.9403 84.7008 62.944 84.7217 62.9436 84.7427L62.7322 145.07C62.7322 145.113 62.7153 145.154 62.6853 145.184C62.6552 145.214 62.6145 145.231 62.572 145.231Z" fill="#383333"/>
<path d="M10.0952 74.4222C10.016 74.4214 9.9373 74.4096 9.86139 74.3869C9.65831 74.3248 9.48807 74.1848 9.38785 73.9976C9.28762 73.8103 9.26556 73.591 9.32647 73.3876C11.1875 67.2792 12.126 67.1062 12.5296 67.0294C13.2599 66.8884 15.8705 67.8141 20.2812 69.7712C20.3844 69.8083 20.479 69.8662 20.559 69.9414C20.639 70.0165 20.7026 70.1073 20.746 70.2081C20.7895 70.3088 20.8117 70.4175 20.8114 70.5272C20.8111 70.637 20.7882 70.7455 20.7442 70.846C20.7002 70.9465 20.636 71.0369 20.5556 71.1116C20.4752 71.1863 20.3804 71.2437 20.2769 71.2802C20.1734 71.3166 20.0635 71.3315 19.954 71.3237C19.8445 71.316 19.7378 71.2858 19.6405 71.2351C17.0076 70.0691 13.8493 68.8103 12.914 68.6309C12.4367 69.2715 11.495 71.7444 10.8544 73.8552C10.8042 74.0179 10.7036 74.1605 10.5672 74.2624C10.4308 74.3643 10.2655 74.4202 10.0952 74.4222Z" fill="white"/>
<path d="M50.3906 112.078C48.8659 112.078 46.6525 111.21 44.7691 110.31C44.6636 110.272 44.5674 110.212 44.4865 110.135C44.4056 110.057 44.3419 109.963 44.2995 109.86C44.2571 109.756 44.237 109.644 44.2405 109.532C44.2439 109.42 44.2709 109.31 44.3196 109.209C44.3683 109.108 44.4376 109.019 44.5231 108.946C44.6086 108.874 44.7084 108.82 44.816 108.788C44.9236 108.757 45.0366 108.748 45.1477 108.763C45.2588 108.778 45.3655 108.816 45.461 108.875C47.6807 109.935 50.0671 110.672 50.6724 110.477C51.3323 109.292 52.0786 106.803 52.0882 106.777C52.1523 106.578 52.292 106.411 52.4774 106.314C52.6627 106.216 52.8789 106.195 53.0796 106.255C53.2804 106.315 53.4496 106.451 53.5511 106.634C53.6526 106.817 53.6782 107.033 53.6225 107.235C53.5873 107.347 52.7801 110.041 52.021 111.358C51.7135 111.88 51.1337 112.078 50.3906 112.078Z" fill="white"/>
<path d="M47.5718 81.1391C47.4753 81.1381 47.3798 81.1197 47.2899 81.0847L43.3405 79.5952C43.1417 79.5205 42.9807 79.3698 42.893 79.1764C42.8053 78.983 42.7981 78.7626 42.8728 78.5638C42.9476 78.365 43.0982 78.2041 43.2917 78.1164C43.4851 78.0287 43.7054 78.0214 43.9042 78.0962L47.8537 79.5888C48.0292 79.6548 48.176 79.7804 48.2685 79.9435C48.3609 80.1067 48.3932 80.2971 48.3597 80.4816C48.3261 80.6661 48.2289 80.833 48.0849 80.9532C47.9409 81.0733 47.7593 81.1391 47.5718 81.1391Z" fill="white"/>
<path d="M8.13813 96.9658C8.04184 96.9659 7.94633 96.9485 7.85626 96.9145L5.15602 95.8895C4.95723 95.8143 4.79645 95.6632 4.70905 95.4695C4.62165 95.2758 4.61479 95.0553 4.68997 94.8565C4.76515 94.6577 4.91622 94.4969 5.10995 94.4095C5.30368 94.3221 5.52419 94.3153 5.72298 94.3904L8.42321 95.4154C8.599 95.4815 8.74597 95.6073 8.83841 95.7708C8.93086 95.9343 8.96289 96.1251 8.92893 96.3098C8.89496 96.4945 8.79715 96.6614 8.6526 96.7813C8.50804 96.9012 8.32594 96.9665 8.13813 96.9658Z" fill="white"/>
<path d="M24.6406 64.1049C24.4487 64.1054 24.2629 64.037 24.1172 63.912C23.9714 63.787 23.8755 63.6138 23.8468 63.424C23.818 63.2342 23.8585 63.0403 23.9607 62.8778C24.0629 62.7153 24.2201 62.5949 24.4036 62.5386L33.981 59.5469C34.0813 59.5153 34.1868 59.5039 34.2916 59.5131C34.3963 59.5224 34.4983 59.5521 34.5915 59.6008C34.6848 59.6494 34.7675 59.7159 34.835 59.7965C34.9026 59.8772 34.9536 59.9703 34.9851 60.0706C35.0167 60.1709 35.0282 60.2765 35.0189 60.3812C35.0097 60.486 34.9799 60.5879 34.9313 60.6812C34.8826 60.7744 34.8161 60.8572 34.7355 60.9247C34.6549 60.9922 34.5617 61.0432 34.4614 61.0748L24.8969 64.0825C24.8132 64.1037 24.7267 64.1113 24.6406 64.1049Z" fill="white"/>
<path d="M103.95 62.5996C103.862 62.5999 103.774 62.5858 103.691 62.558L97.3227 60.3798C97.1239 60.3094 96.9609 60.1634 96.8691 59.9735C96.7773 59.7836 96.7641 59.5651 96.8325 59.3655C96.9008 59.166 97.0452 59.0014 97.2341 58.9077C97.4231 58.8139 97.6414 58.7985 97.8416 58.8648L104.209 61.0429C104.388 61.1052 104.538 61.2284 104.634 61.3908C104.73 61.5532 104.766 61.7443 104.735 61.9305C104.704 62.1167 104.608 62.2859 104.465 62.4083C104.321 62.5307 104.139 62.5985 103.95 62.5996Z" fill="white"/>
<path d="M75.4134 111.553C75.2652 111.567 75.1156 111.55 74.9747 111.502C74.8338 111.454 74.7049 111.376 74.5966 111.274C74.2058 110.915 73.5075 109.33 72.5273 106.556C72.4882 106.456 72.4695 106.349 72.4724 106.242C72.4753 106.134 72.4998 106.029 72.5444 105.931C72.589 105.833 72.6528 105.746 72.7319 105.673C72.8111 105.601 72.9041 105.545 73.0053 105.509C73.1065 105.473 73.2139 105.458 73.321 105.464C73.4282 105.471 73.533 105.499 73.6292 105.547C73.7253 105.594 73.8109 105.661 73.8808 105.742C73.9507 105.824 74.0035 105.919 74.036 106.021C74.4918 107.354 75.0145 108.664 75.6023 109.945C76.5516 109.726 77.4773 109.416 78.3666 109.019C78.4632 108.977 78.5671 108.954 78.6723 108.953C78.7776 108.951 78.8823 108.969 78.9803 109.008C79.0783 109.046 79.1677 109.104 79.2435 109.177C79.3193 109.25 79.38 109.337 79.4221 109.434C79.4641 109.53 79.4868 109.634 79.4887 109.74C79.4906 109.845 79.4718 109.95 79.4332 110.048C79.3947 110.146 79.3373 110.235 79.2642 110.311C79.1911 110.387 79.1038 110.447 79.0073 110.489C77.063 111.319 76.0123 111.553 75.4134 111.553Z" fill="white"/>
<path d="M85.6153 79.7683C85.4255 79.7703 85.2411 79.7047 85.0951 79.5833C84.9491 79.4619 84.8511 79.2926 84.8183 79.1055C84.7856 78.9185 84.8204 78.726 84.9165 78.5622C85.0127 78.3985 85.1638 78.2742 85.3431 78.2116L95.2567 74.6657C95.4568 74.594 95.6772 74.6046 95.8694 74.6953C96.0616 74.786 96.2099 74.9493 96.2817 75.1494C96.3535 75.3495 96.3429 75.5699 96.2522 75.7621C96.1615 75.9543 95.9981 76.1026 95.798 76.1744L85.8844 79.7267C85.7978 79.7559 85.7067 79.77 85.6153 79.7683Z" fill="white"/>
<path d="M127.672 90.1784C127.504 90.1787 127.34 90.126 127.204 90.0276C127.068 89.9292 126.966 89.7903 126.913 89.6306L125.248 84.6466C125.19 84.4477 125.211 84.2342 125.307 84.0507C125.403 83.8673 125.567 83.7282 125.763 83.6627C125.96 83.5972 126.174 83.6104 126.361 83.6995C126.548 83.7885 126.693 83.9466 126.766 84.1405L128.431 89.1246C128.498 89.3259 128.483 89.5456 128.388 89.7354C128.293 89.9251 128.127 90.0695 127.925 90.1367C127.844 90.1646 127.758 90.1786 127.672 90.1784Z" fill="white"/>
<path d="M14.365 126.435C14.2834 126.434 14.2024 126.421 14.1248 126.396C12.1484 125.771 11.9659 125.531 11.8281 125.345C11.6904 125.16 11.5462 124.942 11.5078 121.351C11.5065 121.246 11.526 121.142 11.5651 121.044C11.6041 120.946 11.6621 120.857 11.7355 120.782C11.809 120.707 11.8966 120.647 11.9933 120.605C12.0899 120.564 12.1938 120.542 12.299 120.541C12.51 120.54 12.7127 120.623 12.8628 120.771C13.0129 120.919 13.0981 121.121 13.0998 121.332C13.0998 122.463 13.1542 123.792 13.2055 124.378C13.5258 124.513 14.1087 124.718 14.5956 124.868C14.7794 124.925 14.9368 125.045 15.039 125.208C15.1412 125.371 15.1814 125.565 15.1523 125.755C15.1231 125.945 15.0266 126.118 14.8803 126.243C14.734 126.368 14.5476 126.436 14.3554 126.435H14.365Z" fill="white"/>
<path d="M60.5477 128.366C60.4424 128.367 60.3381 128.346 60.2407 128.306C60.1434 128.266 60.0549 128.207 59.9805 128.133C59.906 128.058 59.8471 127.97 59.807 127.872C59.7669 127.775 59.7465 127.671 59.7469 127.565V116.015C59.7469 115.803 59.8313 115.599 59.9814 115.449C60.1316 115.298 60.3353 115.214 60.5477 115.214C60.7601 115.214 60.9637 115.298 61.1139 115.449C61.2641 115.599 61.3485 115.803 61.3485 116.015V127.565C61.3489 127.671 61.3285 127.775 61.2884 127.872C61.2483 127.97 61.1893 128.058 61.1149 128.133C61.0404 128.207 60.952 128.266 60.8546 128.306C60.7573 128.346 60.653 128.367 60.5477 128.366Z" fill="white"/>
<path d="M114.709 126.62C114.521 126.619 114.338 126.551 114.195 126.429C114.051 126.307 113.955 126.137 113.924 125.951C113.893 125.765 113.929 125.574 114.025 125.412C114.121 125.249 114.272 125.126 114.45 125.064C115.606 124.691 116.733 124.234 117.823 123.696C117.935 122.764 117.871 119.035 117.739 115.711C117.735 115.605 117.751 115.501 117.787 115.402C117.823 115.303 117.878 115.212 117.949 115.135C118.02 115.058 118.106 114.995 118.201 114.951C118.297 114.907 118.4 114.882 118.505 114.878C118.717 114.872 118.922 114.95 119.077 115.093C119.233 115.237 119.326 115.435 119.338 115.646C119.658 123.885 119.357 124.359 119.203 124.586C119.05 124.814 118.732 125.294 114.969 126.579C114.885 126.607 114.797 126.621 114.709 126.62Z" fill="white"/>
<path d="M109.395 125.644C107.951 125.644 108.165 127.886 109.6 127.886C111.035 127.886 110.83 125.644 109.395 125.644Z" fill="white"/>
<path d="M117.615 108.555C116.173 108.555 116.385 110.797 117.823 110.797C119.261 110.797 119.053 108.555 117.615 108.555Z" fill="white"/>
<path d="M124.008 79.166C122.567 79.166 122.781 81.4082 124.216 81.4082C125.651 81.4082 125.446 79.166 124.008 79.166Z" fill="white"/>
<path d="M100.584 72.8784C99.1389 72.8784 99.3535 75.1206 100.789 75.1206C102.224 75.1206 102.019 72.8784 100.584 72.8784Z" fill="white"/>
<path d="M80.5416 79.7041C79.097 79.7041 79.3116 81.9463 80.7466 81.9463C82.1816 81.9463 81.9766 79.7041 80.5416 79.7041Z" fill="white"/>
<path d="M71.4063 99.6116C69.9617 99.6116 70.1763 101.854 71.6145 101.854C73.0527 101.854 72.8413 99.6116 71.4063 99.6116Z" fill="white"/>
<path d="M82.771 106.38C81.3263 106.38 81.541 108.622 82.9792 108.622C84.4174 108.622 84.2188 106.38 82.771 106.38Z" fill="white"/>
<path d="M53.0299 100.416C51.5853 100.416 51.7999 102.658 53.2381 102.658C54.6763 102.658 54.4649 100.416 53.0299 100.416Z" fill="white"/>
<path d="M60.3651 109.282C58.9205 109.282 59.1351 111.524 60.5701 111.524C62.0051 111.524 61.7969 109.282 60.3651 109.282Z" fill="white"/>
<path d="M51.0952 81.3281C49.6506 81.3281 49.8652 83.5703 51.3034 83.5703C52.7416 83.5703 52.5302 81.3281 51.0952 81.3281Z" fill="white"/>
<path d="M37.7158 76.2385C36.2744 76.2385 36.4858 78.4807 37.924 78.4807C39.3622 78.4807 39.154 76.2385 37.7158 76.2385Z" fill="white"/>
<path d="M23.8526 71.3215C22.4112 71.3215 22.6226 73.5637 24.0609 73.5637C25.4991 73.5637 25.2812 71.3215 23.8526 71.3215Z" fill="white"/>
<path d="M8.62501 76.4788C7.1836 76.4788 7.39821 78.7209 8.83321 78.7209C10.2682 78.7209 10.0568 76.4788 8.62501 76.4788Z" fill="white"/>
<path d="M2.41414 92.6001C0.969533 92.6001 1.18414 94.8423 2.62234 94.8423C4.06055 94.8423 3.85235 92.6001 2.41414 92.6001Z" fill="white"/>
<path d="M12.8115 115.326C11.3669 115.326 11.5815 117.568 13.0197 117.568C14.4579 117.568 14.2465 115.326 12.8115 115.326Z" fill="white"/>
<path d="M18.1319 125.32C16.6873 125.32 16.9019 127.562 18.3369 127.562C19.7719 127.562 19.5669 125.32 18.1319 125.32Z" fill="white"/>
<path d="M59.7981 130.72C58.3567 130.72 58.5713 132.963 60.0063 132.963C61.4413 132.963 61.2363 130.72 59.7981 130.72Z" fill="white"/>
<path d="M108.319 62.3752C106.878 62.3752 107.089 64.6174 108.527 64.6174C109.965 64.6174 109.757 62.3752 108.319 62.3752Z" fill="white"/>
<path d="M93.5687 57.2151C92.1273 57.2151 92.3419 59.4573 93.7769 59.4573C95.2119 59.4573 95.0069 57.2151 93.5687 57.2151Z" fill="white"/>
<path d="M20.3869 63.4229C18.9455 63.4229 19.1569 65.665 20.5951 65.665C22.0333 65.665 21.8251 63.4229 20.3869 63.4229Z" fill="white"/>
<path d="M39.1668 57.625C37.7222 57.625 37.9368 59.8672 39.375 59.8672C40.8132 59.8672 40.6018 57.625 39.1668 57.625Z" fill="white"/>
<path d="M25.3837 56.302H78.1072C81.1057 56.302 83.5365 53.8712 83.5365 50.8727V12.243C83.5365 9.2445 81.1057 6.81372 78.1072 6.81372H25.3837C22.3852 6.81372 19.9544 9.2445 19.9544 12.243V50.8727C19.9544 53.8712 22.3852 56.302 25.3837 56.302Z" fill="#AAEEEA"/>
<path d="M83.5365 44.3352C83.6005 51.4098 83.6657 58.4855 83.7319 65.5623C83.7349 65.906 83.6402 66.2435 83.4587 66.5354C83.2773 66.8273 83.0166 67.0617 82.707 67.2111C82.3975 67.3605 82.0518 67.4188 81.7104 67.3792C81.369 67.3397 81.0458 67.2039 80.7786 66.9877L65.5413 54.6365L83.5365 44.3352Z" fill="#AAEEEA"/>
<path d="M64.2846 20.1949L63.0935 19.0037C61.9541 17.8643 60.1067 17.8643 58.9673 19.0037L39.1996 38.7715C38.0602 39.9109 38.0602 41.7582 39.1996 42.8976L40.3907 44.0888C41.5301 45.2282 43.3775 45.2282 44.5169 44.0888L64.2846 24.321C65.424 23.1816 65.424 21.3343 64.2846 20.1949Z" fill="#00CCC1"/>
<path d="M40.3823 19.0187L39.1911 20.2099C38.0517 21.3493 38.0517 23.1966 39.1911 24.336L58.9589 44.1038C60.0983 45.2432 61.9456 45.2432 63.085 44.1038L64.2762 42.9126C65.4156 41.7732 65.4156 39.9259 64.2762 38.7865L44.5084 19.0187C43.369 17.8793 41.5217 17.8793 40.3823 19.0187Z" fill="#00CCC1"/>
<path d="M22.344 15.4238C22.1365 15.4239 21.9371 15.3435 21.7877 15.1995C21.6383 15.0555 21.5507 14.8592 21.5432 14.6518C21.492 13.2265 21.4727 9.80552 22.4049 8.80935C23.337 7.81318 26.665 7.88044 28.0392 7.96693C28.2505 7.98092 28.4477 8.0781 28.5876 8.2372C28.7275 8.39629 28.7987 8.60432 28.7855 8.81575C28.7731 9.02906 28.6769 9.22884 28.5179 9.37161C28.359 9.51438 28.1501 9.58859 27.9366 9.5781C25.9731 9.45318 23.9295 9.61333 23.5676 9.92404C23.2697 10.2956 23.0679 12.4865 23.1448 14.607C23.1486 14.7122 23.1317 14.8171 23.095 14.9157C23.0583 15.0144 23.0025 15.1048 22.9308 15.1818C22.8591 15.2589 22.7729 15.321 22.6772 15.3648C22.5814 15.4085 22.478 15.4329 22.3728 15.4366L22.344 15.4238Z" fill="white"/>
<path d="M81.3359 21.0101C81.2307 21.0105 81.1263 20.9901 81.029 20.95C80.9316 20.9099 80.8432 20.8509 80.7688 20.7765C80.6943 20.702 80.6354 20.6136 80.5953 20.5162C80.5552 20.4189 80.5347 20.3146 80.5352 20.2093V11.8203C80.5352 11.6079 80.6195 11.4042 80.7697 11.2541C80.9199 11.1039 81.1236 11.0195 81.3359 11.0195C81.5483 11.0195 81.752 11.1039 81.9022 11.2541C82.0524 11.4042 82.1367 11.6079 82.1367 11.8203V20.2093C82.1371 20.3146 82.1167 20.4189 82.0766 20.5162C82.0365 20.6136 81.9776 20.702 81.9031 20.7765C81.8287 20.8509 81.7402 20.9099 81.6429 20.95C81.5455 20.9901 81.4412 21.0105 81.3359 21.0101Z" fill="white"/>
<path d="M28.4555 54.4444C26.9437 54.4444 25.1691 54.3547 24.3331 53.9895C23.7758 53.7429 22.5105 52.6378 22.7828 47.6762C22.7885 47.571 22.8148 47.468 22.8603 47.373C22.9058 47.278 22.9695 47.193 23.0479 47.1226C23.1263 47.0523 23.2178 46.9981 23.3171 46.9631C23.4164 46.9281 23.5217 46.913 23.6268 46.9186C23.732 46.9243 23.835 46.9507 23.93 46.9962C24.025 47.0416 24.1101 47.1054 24.1804 47.1838C24.2507 47.2621 24.305 47.3536 24.34 47.4529C24.3749 47.5523 24.39 47.6575 24.3844 47.7627C24.269 49.9248 24.5637 52.247 24.9897 52.5289C25.7873 52.8781 28.8655 52.8877 30.7938 52.7788C31.0062 52.7669 31.2146 52.8398 31.3732 52.9816C31.5318 53.1234 31.6275 53.3223 31.6394 53.5347C31.6513 53.7471 31.5784 53.9555 31.4366 54.1141C31.2948 54.2727 31.0959 54.3684 30.8835 54.3803C30.5248 54.3963 29.5606 54.4444 28.4555 54.4444Z" fill="white"/>
<path d="M81.2879 54.0568C81.0755 54.0568 80.8718 53.9724 80.7217 53.8222C80.5715 53.672 80.4871 53.4684 80.4871 53.256V42.6184C80.4871 42.406 80.5715 42.2023 80.7217 42.0522C80.8718 41.902 81.0755 41.8176 81.2879 41.8176C81.5003 41.8176 81.704 41.902 81.8541 42.0522C82.0043 42.2023 82.0887 42.406 82.0887 42.6184V53.256C82.0887 53.4684 82.0043 53.672 81.8541 53.8222C81.704 53.9724 81.5003 54.0568 81.2879 54.0568Z" fill="white"/>
<path d="M71.4287 57.561C71.2949 57.5617 71.1631 57.5286 71.0455 57.4648C70.9279 57.4009 70.8283 57.3084 70.756 57.1958C70.0658 56.0892 69.3173 55.02 68.5138 53.9927C67.8444 53.9126 65.3107 53.9607 63.1646 54.06C62.9522 54.0698 62.7447 53.9948 62.5876 53.8515C62.4305 53.7082 62.3368 53.5084 62.327 53.296C62.3172 53.0837 62.3922 52.8761 62.5355 52.719C62.6788 52.5619 62.8786 52.4682 63.0909 52.4584C68.6355 52.2086 69.0648 52.4424 69.273 52.5577C69.4812 52.673 69.9136 52.8973 72.1013 56.331C72.1585 56.4195 72.1976 56.5184 72.2164 56.622C72.2353 56.7257 72.2335 56.832 72.2112 56.935C72.1889 57.0379 72.1465 57.1355 72.0864 57.222C72.0263 57.3086 71.9498 57.3824 71.8611 57.4393C71.7318 57.521 71.5816 57.5632 71.4287 57.561Z" fill="white"/>
<path d="M81.4801 56.4912C80.0387 56.4912 80.2501 58.7334 81.6883 58.7334C83.1265 58.7334 82.9183 56.4912 81.4801 56.4912Z" fill="white"/>
<path d="M81.3359 35.2927C79.8913 35.2927 80.1059 37.5349 81.5441 37.5349C82.9823 37.5349 82.7549 35.2927 81.3359 35.2927Z" fill="white"/>
<path d="M56.816 52.3816C55.3746 52.3816 55.5892 54.6238 57.0242 54.6238C58.4592 54.6238 58.2542 52.3816 56.816 52.3816Z" fill="white"/>
<path d="M35.5313 52.3816C34.0866 52.3816 34.3013 54.6238 35.7363 54.6238C37.1713 54.6238 36.9759 52.3816 35.5313 52.3816Z" fill="white"/>
<path d="M23.0391 41.8208C21.5977 41.8208 21.8123 44.063 23.2473 44.063C24.6823 44.063 24.4837 41.8208 23.0391 41.8208Z" fill="white"/>
<path d="M22.3984 20.062C20.957 20.062 21.1684 22.3042 22.6066 22.3042C24.0448 22.3042 23.8398 20.062 22.3984 20.062Z" fill="white"/>
<path d="M33.4428 7.97656C32.0014 7.97656 32.216 10.2188 33.651 10.2188C35.086 10.2188 34.8906 7.97656 33.4428 7.97656Z" fill="white"/>
<path d="M80.9163 24.7354C79.4717 24.7354 79.6863 26.9775 81.1245 26.9775C82.5627 26.9775 82.3513 24.7354 80.9163 24.7354Z" fill="white"/>
</svg>
