<svg width="24" height="24" viewBox="0 0 24 24" fill="none" xmlns="http://www.w3.org/2000/svg">
<path d="M17.88 6.12L3.92997 20.07C3.49997 20.5 2.77997 20.46 2.42997 19.97C1.92997 19.28 1.82998 18.32 2.34998 17.49L5.10998 13.06C5.47998 12.47 5.47998 11.51 5.10998 10.92L2.34998 6.49C1.41998 5.01 2.48997 3.09 4.22997 3.09H15.68C16.36 3.09 17.2 3.56 17.56 4.13L18.03 4.87C18.26 5.28 18.21 5.79 17.88 6.12Z" fill="black"/>
<path opacity="0.4" d="M21.63 13.11L16.45 20.01C16.09 20.5 15.29 20.9 14.67 20.9H7.50999C6.61999 20.9 6.17 19.82 6.8 19.19L18.31 7.67999C18.76 7.22999 19.53 7.30999 19.87 7.85999L21.72 10.83C22.13 11.47 22.09 12.5 21.63 13.11Z" fill="black"/>
</svg>
