<svg width="30" height="31" viewBox="0 0 30 31" fill="none" xmlns="http://www.w3.org/2000/svg">
<path d="M15 29.2455C7.5875 29.2455 1.5625 23.2205 1.5625 15.808C1.5625 8.39548 7.5875 2.37048 15 2.37048C22.4125 2.37048 28.4375 8.39548 28.4375 15.808C28.4375 23.2205 22.4125 29.2455 15 29.2455ZM15 4.24548C8.625 4.24548 3.4375 9.43298 3.4375 15.808C3.4375 22.183 8.625 27.3705 15 27.3705C21.375 27.3705 26.5625 22.183 26.5625 15.808C26.5625 9.43298 21.375 4.24548 15 4.24548Z" fill="#336DAE"/>
<path d="M20 16.7455H10C9.4875 16.7455 9.0625 16.3205 9.0625 15.808C9.0625 15.2955 9.4875 14.8705 10 14.8705H20C20.5125 14.8705 20.9375 15.2955 20.9375 15.808C20.9375 16.3205 20.5125 16.7455 20 16.7455Z" fill="#336DAE"/>
<path d="M15 21.7455C14.4875 21.7455 14.0625 21.3205 14.0625 20.808V10.808C14.0625 10.2955 14.4875 9.87048 15 9.87048C15.5125 9.87048 15.9375 10.2955 15.9375 10.808V20.808C15.9375 21.3205 15.5125 21.7455 15 21.7455Z" fill="#336DAE"/>
</svg>
