<svg width="302" height="251" viewBox="0 0 302 251" fill="none" xmlns="http://www.w3.org/2000/svg">
<path d="M124.535 11.3603H81.2734V137.817H124.535V11.3603Z" fill="#EBEFF9"/>
<path d="M92.9334 15.552H84.4648V20.6247H92.9334V15.552Z" fill="white"/>
<path d="M102.403 15.552H93.9346V20.6247H102.403V15.552Z" fill="white"/>
<path d="M111.871 15.552H103.402V20.6247H111.871V15.552Z" fill="white"/>
<path d="M121.341 15.552H112.872V20.6247H121.341V15.552Z" fill="white"/>
<path d="M92.9334 22.4996H84.4648V27.5723H92.9334V22.4996Z" fill="white"/>
<path d="M102.403 22.4996H93.9346V27.5723H102.403V22.4996Z" fill="white"/>
<path d="M111.871 22.4996H103.402V27.5723H111.871V22.4996Z" fill="white"/>
<path d="M121.341 22.4996H112.872V27.5723H121.341V22.4996Z" fill="white"/>
<path d="M92.9334 29.4448H84.4648V34.5175H92.9334V29.4448Z" fill="white"/>
<path d="M102.403 29.4448H93.9346V34.5175H102.403V29.4448Z" fill="white"/>
<path d="M111.871 29.4448H103.402V34.5175H111.871V29.4448Z" fill="white"/>
<path d="M121.341 29.4448H112.872V34.5175H121.341V29.4448Z" fill="white"/>
<path d="M92.9334 36.3925H84.4648V41.4652H92.9334V36.3925Z" fill="white"/>
<path d="M102.403 36.3925H93.9346V41.4652H102.403V36.3925Z" fill="white"/>
<path d="M111.871 36.3925H103.402V41.4652H111.871V36.3925Z" fill="white"/>
<path d="M121.341 36.3925H112.872V41.4652H121.341V36.3925Z" fill="white"/>
<path d="M92.9334 43.3402H84.4648V48.4129H92.9334V43.3402Z" fill="white"/>
<path d="M102.403 43.3402H93.9346V48.4129H102.403V43.3402Z" fill="white"/>
<path d="M111.871 43.3402H103.402V48.4129H111.871V43.3402Z" fill="white"/>
<path d="M121.341 43.3402H112.872V48.4129H121.341V43.3402Z" fill="white"/>
<path d="M171.01 18.8903H127.748V137.817H171.01V18.8903Z" fill="#EBEFF9"/>
<path d="M139.411 23.604H130.942V27.4318H139.411V23.604Z" fill="white"/>
<path d="M148.879 23.604H140.41V27.4318H148.879V23.604Z" fill="white"/>
<path d="M158.348 23.604H149.88V27.4318H158.348V23.604Z" fill="white"/>
<path d="M167.819 23.604H159.351V27.4318H167.819V23.604Z" fill="white"/>
<path d="M139.411 28.8474H130.942V32.6752H139.411V28.8474Z" fill="white"/>
<path d="M148.879 28.8474H140.41V32.6752H148.879V28.8474Z" fill="white"/>
<path d="M158.348 28.8474H149.88V32.6752H158.348V28.8474Z" fill="white"/>
<path d="M167.819 28.8474H159.351V32.6752H167.819V28.8474Z" fill="white"/>
<path d="M139.411 34.0933H130.942V37.9211H139.411V34.0933Z" fill="white"/>
<path d="M148.879 34.0933H140.41V37.9211H148.879V34.0933Z" fill="white"/>
<path d="M158.348 34.0933H149.88V37.9211H158.348V34.0933Z" fill="white"/>
<path d="M167.819 34.0933H159.351V37.9211H167.819V34.0933Z" fill="white"/>
<path d="M139.411 39.3367H130.942V43.1645H139.411V39.3367Z" fill="white"/>
<path d="M148.879 39.3367H140.41V43.1645H148.879V39.3367Z" fill="white"/>
<path d="M158.348 39.3367H149.88V43.1645H158.348V39.3367Z" fill="white"/>
<path d="M167.819 39.3367H159.351V43.1645H167.819V39.3367Z" fill="white"/>
<path d="M139.411 44.5826H130.942V48.4104H139.411V44.5826Z" fill="white"/>
<path d="M148.879 44.5826H140.41V48.4104H148.879V44.5826Z" fill="white"/>
<path d="M158.348 44.5826H149.88V48.4104H158.348V44.5826Z" fill="white"/>
<path d="M167.819 44.5826H159.351V48.4104H167.819V44.5826Z" fill="white"/>
<path d="M69.621 228.523C69.621 228.523 25.763 192.351 26.3645 164.154C26.3645 164.154 54.901 174.601 68.4205 204.565C68.4205 204.565 38.3791 162.919 43.1859 129.365C43.1859 129.365 62.1113 143.298 69.6109 175.13C69.6109 175.13 50.9876 122.634 61.2002 98.5752C61.2002 98.5752 82.529 144.91 83.4299 160.653V228.523H69.621Z" fill="#DB4239"/>
<path d="M26.3643 164.154C28.5135 166.641 30.6426 169.154 32.7717 171.651L39.1363 179.181C41.2629 181.691 43.3568 184.221 45.4683 186.744L51.7876 194.314L58.0667 201.919C60.1555 204.457 62.262 206.982 64.3357 209.535L70.572 217.175C72.6332 219.735 74.7119 222.283 76.7605 224.856C74.6088 222.368 72.4822 219.856 70.348 217.358L63.9859 209.828C61.8593 207.318 59.7655 204.788 57.654 202.268L51.3397 194.688L45.048 187.083C42.9592 184.545 40.8552 182.02 38.7815 179.468L32.5452 171.827C30.4891 169.267 28.4128 166.719 26.3643 164.154Z" fill="white"/>
<path d="M43.1855 129.353C44.6452 132.536 46.0696 135.733 47.5142 138.923L51.7925 148.517C53.217 151.712 54.6112 154.925 56.0205 158.13L60.241 167.748L64.4262 177.382C65.8129 180.597 67.2197 183.802 68.5863 187.028L72.7086 196.686C74.0625 199.916 75.4341 203.137 76.773 206.372C75.3133 203.19 73.8864 199.992 72.4443 196.802L68.166 187.206C66.734 184.011 65.3423 180.798 63.9304 177.595L59.71 167.979L55.5399 158.341C54.1507 155.126 52.7464 151.92 51.3798 148.695L47.2575 139.036C45.896 135.809 44.5244 132.588 43.1855 129.353Z" fill="white"/>
<path d="M61.21 98.5727C62.0606 102.418 62.8735 106.273 63.7065 110.119L66.1426 121.682C66.9631 125.535 67.7432 129.396 68.541 133.253L70.9218 144.827L73.2547 156.411C74.0248 160.274 74.8201 164.131 75.5701 167.997L77.8351 179.593C78.5724 183.463 79.33 187.329 80.0522 191.202C79.1991 187.354 78.3862 183.501 77.5532 179.656L75.1171 168.092C74.2966 164.239 73.519 160.379 72.7187 156.521L70.3379 144.947L68.0075 133.364C67.2349 129.501 66.4421 125.643 65.6921 121.775L63.4196 110.189C62.6872 106.311 61.9297 102.446 61.21 98.5727Z" fill="white"/>
<path d="M179.942 228.523V65.009C179.942 62.4407 178.919 59.9777 177.098 58.1617C175.277 56.3456 172.807 55.3254 170.232 55.3254H86.9786C85.7029 55.3244 84.4395 55.5742 83.2607 56.0604C82.0818 56.5466 81.0106 57.2597 80.1082 58.159C79.2058 59.0583 78.4899 60.1262 78.0015 61.3015C77.5131 62.4769 77.2617 63.7367 77.2617 65.009V228.523H179.942Z" fill="white"/>
<path d="M182.74 228.523H177.159V65.009C177.157 63.1796 176.427 61.4257 175.13 60.1322C173.833 58.8386 172.074 58.111 170.24 58.109H86.9788C85.145 58.1117 83.3871 58.8396 82.0906 60.1331C80.7942 61.4266 80.065 63.1801 80.063 65.009V228.523H74.4785V65.009C74.4818 61.7035 75.7999 58.5344 78.1434 56.1971C80.487 53.8597 83.6645 52.5452 86.9788 52.5418H170.24C173.554 52.5452 176.732 53.8597 179.076 56.1971C181.419 58.5344 182.737 61.7035 182.74 65.009V228.523Z" fill="#252B40"/>
<path d="M164.175 70.0867H94.6063C93.3735 70.0867 92.374 71.0835 92.374 72.3131V136.092C92.374 137.322 93.3735 138.319 94.6063 138.319H164.175C165.407 138.319 166.407 137.322 166.407 136.092V72.3131C166.407 71.0835 165.407 70.0867 164.175 70.0867Z" fill="#EBEFF9"/>
<mask id="mask0_682_14047" style="mask-type:luminance" maskUnits="userSpaceOnUse" x="92" y="70" width="75" height="69">
<path d="M164.175 70.0867H94.6063C93.3735 70.0867 92.374 71.0835 92.374 72.3131V136.092C92.374 137.322 93.3735 138.319 94.6063 138.319H164.175C165.407 138.319 166.407 137.322 166.407 136.092V72.3131C166.407 71.0835 165.407 70.0867 164.175 70.0867Z" fill="white"/>
</mask>
<g mask="url(#mask0_682_14047)">
<path d="M166.487 119.084H155.892V89.386H166.407V86.876H110.449V70.0841H107.932V82.6341H92.374V85.1441H107.935V94.4311H92.374V96.9411H107.935V106.228H92.374V108.738H107.935V118.025H92.374V120.535H107.935V138.303H110.451V112.87L126.399 102.092V138.318H128.916V121.592H139.31V138.318H141.827V121.592H153.388V138.318H155.905V121.592H166.5L166.487 119.084ZM110.449 89.386H140.719L110.449 109.84V89.386ZM145.199 89.386H153.378V108.625H128.908V100.4L145.199 89.386ZM128.908 119.084V111.133H153.378V119.084H128.908Z" fill="white"/>
</g>
<path d="M145.5 130H140.5V120.5H127.5V99" stroke="#DB4239"/>
<path d="M150.713 124.207C150.866 123.733 150.914 123.231 150.854 122.737C150.794 122.242 150.628 121.766 150.366 121.342C150.104 120.917 149.754 120.554 149.338 120.278C148.923 120.001 148.452 119.818 147.958 119.739C147.465 119.661 146.961 119.691 146.48 119.826C145.999 119.96 145.553 120.197 145.172 120.52C144.792 120.843 144.486 121.244 144.275 121.696C144.065 122.148 143.955 122.64 143.953 123.138C143.952 123.501 144.009 123.862 144.122 124.207C144.701 126.386 146.596 129.074 147.217 129.915C147.241 129.945 147.271 129.97 147.305 129.987C147.34 130.003 147.378 130.012 147.416 130.012C147.454 130.012 147.492 130.003 147.527 129.987C147.561 129.97 147.591 129.945 147.615 129.915C148.231 129.074 150.134 126.386 150.713 124.207Z" fill="#1953A0"/>
<path d="M149.379 122.789C149.378 123.176 149.263 123.554 149.047 123.875C148.832 124.196 148.525 124.446 148.167 124.594C147.809 124.741 147.415 124.78 147.034 124.704C146.654 124.628 146.305 124.442 146.031 124.168C145.757 123.895 145.571 123.546 145.495 123.167C145.42 122.788 145.459 122.395 145.607 122.038C145.756 121.681 146.007 121.375 146.33 121.161C146.652 120.946 147.031 120.831 147.418 120.831C147.676 120.831 147.931 120.882 148.169 120.98C148.407 121.079 148.624 121.223 148.806 121.405C148.988 121.587 149.132 121.803 149.23 122.04C149.329 122.278 149.379 122.532 149.379 122.789Z" fill="white"/>
<path d="M99.0032 151.222C98.9084 151.222 98.8175 151.185 98.7505 151.118C98.6834 151.051 98.6458 150.961 98.6458 150.866V149.792C98.6416 149.742 98.6478 149.692 98.6639 149.645C98.6801 149.599 98.7058 149.555 98.7395 149.519C98.7732 149.482 98.8142 149.453 98.8598 149.433C98.9054 149.413 98.9546 149.403 99.0044 149.403C99.0542 149.403 99.1035 149.413 99.1491 149.433C99.1947 149.453 99.2356 149.482 99.2693 149.519C99.303 149.555 99.3288 149.599 99.3449 149.645C99.361 149.692 99.3672 149.742 99.363 149.792V150.866C99.363 150.913 99.3537 150.96 99.3356 151.003C99.3175 151.046 99.2909 151.086 99.2575 151.119C99.224 151.152 99.1843 151.178 99.1407 151.196C99.097 151.214 99.0503 151.223 99.0032 151.222Z" fill="#DB4239"/>
<path d="M99.0032 182.419C98.9084 182.419 98.8175 182.382 98.7505 182.315C98.6834 182.248 98.6458 182.157 98.6458 182.063V179.834C98.6416 179.784 98.6478 179.735 98.6639 179.688C98.6801 179.641 98.7058 179.598 98.7395 179.561C98.7732 179.524 98.8142 179.495 98.8598 179.475C98.9054 179.455 98.9546 179.445 99.0044 179.445C99.0542 179.445 99.1035 179.455 99.1491 179.475C99.1947 179.495 99.2356 179.524 99.2693 179.561C99.303 179.598 99.3288 179.641 99.3449 179.688C99.361 179.735 99.3672 179.784 99.363 179.834V182.063C99.363 182.11 99.3537 182.156 99.3356 182.2C99.3175 182.243 99.2909 182.283 99.2575 182.316C99.224 182.349 99.1843 182.375 99.1407 182.393C99.097 182.411 99.0503 182.42 99.0032 182.419ZM99.0032 177.964C98.9081 177.963 98.8173 177.925 98.7503 177.858C98.6834 177.791 98.6458 177.7 98.6458 177.605V175.376C98.6533 175.287 98.6944 175.203 98.7608 175.142C98.8272 175.081 98.9142 175.047 99.0044 175.047C99.0947 175.047 99.1816 175.081 99.248 175.142C99.3145 175.203 99.3555 175.287 99.363 175.376V177.605C99.3617 177.699 99.3232 177.789 99.2559 177.856C99.1885 177.922 99.0977 177.959 99.0032 177.959V177.964ZM99.0032 173.506C98.9086 173.506 98.8181 173.468 98.7512 173.401C98.6843 173.334 98.6464 173.244 98.6458 173.15V170.931C98.6416 170.882 98.6478 170.832 98.6639 170.785C98.6801 170.738 98.7058 170.695 98.7395 170.658C98.7732 170.622 98.8142 170.592 98.8598 170.572C98.9054 170.552 98.9546 170.542 99.0044 170.542C99.0542 170.542 99.1035 170.552 99.1491 170.572C99.1947 170.592 99.2356 170.622 99.2693 170.658C99.303 170.695 99.3288 170.738 99.3449 170.785C99.361 170.832 99.3672 170.882 99.363 170.931V173.16C99.3598 173.253 99.3204 173.341 99.2533 173.406C99.1861 173.47 99.0965 173.506 99.0032 173.506ZM99.0032 169.051C98.9081 169.05 98.8173 169.012 98.7503 168.945C98.6834 168.878 98.6458 168.787 98.6458 168.692V166.463C98.6533 166.374 98.6944 166.29 98.7608 166.229C98.8272 166.168 98.9142 166.134 99.0044 166.134C99.0947 166.134 99.1816 166.168 99.248 166.229C99.3145 166.29 99.3555 166.374 99.363 166.463V168.692C99.363 168.787 99.3251 168.879 99.2576 168.946C99.1901 169.013 99.0986 169.051 99.0032 169.051ZM99.0032 164.593C98.9081 164.593 98.8173 164.554 98.7503 164.487C98.6834 164.42 98.6458 164.329 98.6458 164.234V162.008C98.6416 161.958 98.6478 161.909 98.6639 161.862C98.6801 161.815 98.7058 161.772 98.7395 161.735C98.7732 161.698 98.8142 161.669 98.8598 161.649C98.9054 161.629 98.9546 161.619 99.0044 161.619C99.0542 161.619 99.1035 161.629 99.1491 161.649C99.1947 161.669 99.2356 161.698 99.2693 161.735C99.303 161.772 99.3288 161.815 99.3449 161.862C99.361 161.909 99.3672 161.958 99.363 162.008V164.234C99.363 164.33 99.3251 164.421 99.2576 164.488C99.1901 164.555 99.0986 164.593 99.0032 164.593ZM99.0032 160.138C98.9081 160.137 98.8173 160.099 98.7503 160.032C98.6834 159.965 98.6458 159.874 98.6458 159.779V157.55C98.6416 157.501 98.6478 157.451 98.6639 157.404C98.6801 157.357 98.7058 157.314 98.7395 157.277C98.7732 157.241 98.8142 157.212 98.8598 157.192C98.9054 157.172 98.9546 157.161 99.0044 157.161C99.0542 157.161 99.1035 157.172 99.1491 157.192C99.1947 157.212 99.2356 157.241 99.2693 157.277C99.303 157.314 99.3288 157.357 99.3449 157.404C99.361 157.451 99.3672 157.501 99.363 157.55V159.779C99.363 159.874 99.3251 159.966 99.2576 160.033C99.1901 160.1 99.0986 160.138 99.0032 160.138ZM99.0032 155.68C98.9081 155.68 98.8173 155.641 98.7503 155.574C98.6834 155.507 98.6458 155.416 98.6458 155.321V153.095C98.6416 153.045 98.6478 152.996 98.6639 152.949C98.6801 152.902 98.7058 152.859 98.7395 152.822C98.7732 152.785 98.8142 152.756 98.8598 152.736C98.9054 152.716 98.9546 152.706 99.0044 152.706C99.0542 152.706 99.1035 152.716 99.1491 152.736C99.1947 152.756 99.2356 152.785 99.2693 152.822C99.303 152.859 99.3288 152.902 99.3449 152.949C99.361 152.996 99.3672 153.045 99.363 153.095V155.321C99.363 155.417 99.3251 155.508 99.2576 155.575C99.1901 155.642 99.0986 155.68 99.0032 155.68Z" fill="#DB4239"/>
<path d="M99.0032 185.722C98.9086 185.722 98.8181 185.684 98.7512 185.617C98.6843 185.551 98.6464 185.46 98.6458 185.366V184.292C98.6416 184.242 98.6478 184.192 98.6639 184.145C98.6801 184.098 98.7058 184.055 98.7395 184.019C98.7732 183.982 98.8142 183.953 98.8598 183.933C98.9054 183.913 98.9546 183.903 99.0044 183.903C99.0542 183.903 99.1035 183.913 99.1491 183.933C99.1947 183.953 99.2356 183.982 99.2693 184.019C99.303 184.055 99.3288 184.098 99.3449 184.145C99.361 184.192 99.3672 184.242 99.363 184.292V185.366C99.3624 185.461 99.3242 185.551 99.2567 185.618C99.1893 185.685 99.0982 185.722 99.0032 185.722Z" fill="#DB4239"/>
<path d="M100.523 151.384C101.355 150.309 101.156 148.766 100.079 147.936C99.0014 147.107 97.4539 147.305 96.6222 148.38C95.7905 149.454 95.9894 150.997 97.0666 151.827C98.1438 152.656 99.6913 152.458 100.523 151.384Z" fill="#252B40"/>
<path d="M98.9327 169.879C100.296 169.879 101.402 168.777 101.402 167.417C101.402 166.057 100.296 164.955 98.9327 164.955C97.5692 164.955 96.4639 166.057 96.4639 167.417C96.4639 168.777 97.5692 169.879 98.9327 169.879Z" fill="#252B40"/>
<path d="M101.386 185.455C101.543 184.104 100.572 182.882 99.2173 182.726C97.8628 182.57 96.6377 183.538 96.481 184.889C96.3243 186.24 97.2953 187.462 98.6498 187.618C100.004 187.774 101.229 186.806 101.386 185.455Z" fill="#252B40"/>
<path d="M149.623 147.201H113.368C112.711 147.201 112.178 147.733 112.178 148.389V158.261C112.178 158.916 112.711 159.448 113.368 159.448H149.623C150.281 159.448 150.814 158.916 150.814 158.261V148.389C150.814 147.733 150.281 147.201 149.623 147.201Z" fill="#EBEFF9"/>
<path d="M119.705 151.31V152.063H118.422V155.577H117.528V152.063H116.237V151.31H119.705Z" fill="#252B40"/>
<path d="M122.98 151.421C123.136 151.487 123.274 151.59 123.382 151.719C123.473 151.828 123.545 151.95 123.596 152.081C123.652 152.224 123.679 152.377 123.677 152.53C123.674 152.739 123.622 152.945 123.523 153.13C123.416 153.329 123.235 153.478 123.02 153.547C123.195 153.606 123.344 153.725 123.44 153.883C123.535 154.093 123.578 154.323 123.563 154.553V154.842C123.56 154.975 123.568 155.107 123.589 155.238C123.596 155.29 123.615 155.339 123.643 155.383C123.672 155.426 123.71 155.463 123.755 155.489V155.597H122.763C122.738 155.502 122.718 155.427 122.705 155.369C122.683 155.247 122.67 155.124 122.668 155V154.601C122.688 154.408 122.637 154.214 122.524 154.056C122.38 153.948 122.2 153.899 122.021 153.918H121.127V155.597H120.249V151.33H122.31C122.537 151.32 122.764 151.35 122.98 151.421ZM121.127 152.053V153.203H122.091C122.238 153.211 122.385 153.187 122.522 153.133C122.608 153.087 122.678 153.017 122.723 152.931C122.768 152.845 122.785 152.747 122.773 152.651C122.785 152.549 122.768 152.446 122.723 152.353C122.679 152.261 122.609 152.183 122.522 152.129C122.391 152.071 122.249 152.045 122.106 152.053H121.127Z" fill="#252B40"/>
<path d="M125.763 151.31H126.769L128.279 155.577H127.308L127.023 154.696H125.443L125.154 155.577H124.215L125.763 151.31ZM125.702 153.973H126.802L126.258 152.289L125.702 153.973Z" fill="#252B40"/>
<path d="M129.251 151.757C129.422 151.583 129.628 151.446 129.855 151.355C130.082 151.264 130.325 151.222 130.57 151.23C131.282 151.23 131.805 151.466 132.135 151.938C132.307 152.171 132.409 152.447 132.43 152.736H131.534C131.494 152.567 131.419 152.409 131.312 152.272C131.222 152.175 131.112 152.1 130.989 152.052C130.866 152.004 130.734 151.983 130.602 151.993C130.453 151.989 130.306 152.023 130.173 152.092C130.041 152.161 129.929 152.262 129.847 152.387C129.644 152.721 129.547 153.109 129.571 153.499C129.543 153.881 129.646 154.262 129.863 154.578C129.951 154.693 130.065 154.786 130.197 154.848C130.328 154.911 130.472 154.941 130.618 154.937C130.751 154.945 130.884 154.921 131.006 154.868C131.128 154.814 131.236 154.732 131.32 154.629C131.428 154.478 131.504 154.307 131.544 154.127H132.432C132.372 154.562 132.165 154.965 131.843 155.266C131.511 155.564 131.076 155.72 130.63 155.703C130.361 155.717 130.092 155.671 129.844 155.568C129.595 155.466 129.372 155.309 129.191 155.11C128.819 154.65 128.633 154.069 128.667 153.479C128.655 152.739 128.853 152.161 129.251 151.757Z" fill="#252B40"/>
<path d="M133.159 151.31H134.043V153.067L135.699 151.31H136.859L135.097 153.067L136.949 155.577H135.797L134.473 153.71L134.043 154.147V155.577H133.159V151.31Z" fill="#252B40"/>
<path d="M138.268 155.59H137.377V151.323H138.268V155.59Z" fill="#252B40"/>
<path d="M139.091 151.31H140.032L141.736 154.295V151.31H142.571V155.577H141.673L139.926 152.553V155.59H139.091V151.31Z" fill="#252B40"/>
<path d="M146.297 152.646C146.27 152.51 146.21 152.383 146.122 152.276C146.034 152.17 145.921 152.086 145.793 152.033C145.634 151.966 145.463 151.934 145.29 151.938C145.128 151.934 144.967 151.967 144.82 152.035C144.673 152.102 144.542 152.202 144.439 152.327C144.191 152.665 144.073 153.081 144.105 153.499C144.105 154.024 144.226 154.398 144.467 154.613C144.687 154.826 144.982 154.944 145.288 154.942C145.557 154.955 145.822 154.865 146.027 154.691C146.222 154.515 146.347 154.276 146.382 154.016H145.376V153.301H147.163V155.597H146.569L146.48 155.063C146.349 155.229 146.192 155.373 146.015 155.489C145.75 155.642 145.447 155.718 145.142 155.708C144.88 155.716 144.619 155.668 144.377 155.566C144.136 155.464 143.919 155.311 143.742 155.118C143.348 154.674 143.144 154.092 143.176 153.499C143.146 152.891 143.352 152.296 143.75 151.835C143.941 151.627 144.175 151.464 144.436 151.355C144.696 151.247 144.978 151.197 145.26 151.207C145.734 151.184 146.201 151.331 146.576 151.622C146.894 151.878 147.099 152.248 147.145 152.653L146.297 152.646Z" fill="#252B40"/>
<path d="M157.893 163.142H112.442C112.296 163.142 112.178 163.26 112.178 163.406V166.328C112.178 166.473 112.296 166.591 112.442 166.591H157.893C158.039 166.591 158.157 166.473 158.157 166.328V163.406C158.157 163.26 158.039 163.142 157.893 163.142Z" fill="#EBEFF9"/>
<path d="M157.893 168.531H112.442C112.296 168.531 112.178 168.649 112.178 168.795V171.717C112.178 171.862 112.296 171.98 112.442 171.98H157.893C158.039 171.98 158.157 171.862 158.157 171.717V168.795C158.157 168.649 158.039 168.531 157.893 168.531Z" fill="#EBEFF9"/>
<path d="M157.893 173.918H112.442C112.296 173.918 112.178 174.036 112.178 174.181V177.103C112.178 177.249 112.296 177.367 112.442 177.367H157.893C158.039 177.367 158.157 177.249 158.157 177.103V174.181C158.157 174.036 158.039 173.918 157.893 173.918Z" fill="#EBEFF9"/>
<path d="M157.893 179.307H112.442C112.296 179.307 112.178 179.425 112.178 179.57V182.492C112.178 182.638 112.296 182.756 112.442 182.756H157.893C158.039 182.756 158.157 182.638 158.157 182.492V179.57C158.157 179.425 158.039 179.307 157.893 179.307Z" fill="#EBEFF9"/>
<path d="M134.981 184.696H112.364C112.261 184.696 112.178 184.779 112.178 184.882V187.959C112.178 188.061 112.261 188.145 112.364 188.145H134.981C135.084 188.145 135.167 188.061 135.167 187.959V184.882C135.167 184.779 135.084 184.696 134.981 184.696Z" fill="#EBEFF9"/>
<path d="M159.401 200H113.599C112.716 200 112 200.531 112 201.186V211.814C112 212.469 112.716 213 113.599 213H159.401C160.284 213 161 212.469 161 211.814V201.186C161 200.531 160.284 200 159.401 200Z" fill="#DB4239"/>
<path d="M9 71.5984H61.1604C61.3718 67.6954 59.6857 63.584 56.9777 60.7603C55.4853 59.2016 53.4796 57.939 51.3203 58.0118C49.161 58.0846 47.0017 59.9219 47.1929 62.0705C49.1207 59.2668 47.7466 55.1278 44.9984 53.1198C42.2502 51.1118 38.601 50.8056 35.2061 51.0917C32.5082 51.3176 29.6417 51.9828 27.8372 53.9958C26.0328 56.0088 25.6855 58.9531 25.8491 61.6588C26.1209 60.4616 25.4741 59.1865 24.4825 58.4586C23.491 57.7307 22.2175 57.4822 20.9894 57.4747C17.5315 57.4521 14.1944 59.2518 11.9948 61.9098C9.79526 64.5679 9.22902 68.1572 9 71.5984Z" fill="#CAD2E9"/>
<path d="M184.177 54.5448H216.199C216.327 52.1503 215.293 49.6252 213.632 47.8908C212.716 46.9345 211.485 46.1589 210.156 46.2041C208.828 46.2493 207.506 47.3762 207.625 48.694C208.807 46.9746 207.964 44.427 206.276 43.1996C204.587 41.9722 202.35 41.7789 200.266 41.9446C198.61 42.0852 196.848 42.4918 195.736 43.7267C194.623 44.9616 194.415 46.7713 194.515 48.433C194.681 47.6975 194.286 46.9144 193.677 46.4676C193.043 46.0473 192.294 45.8358 191.533 45.8627C189.409 45.8627 187.363 46.9546 185.996 48.5861C184.63 50.2176 184.318 52.4314 184.177 54.5448Z" fill="#CAD2E9"/>
<path d="M257.721 167.673L272.952 199.713L253.418 201.924L257.721 167.673Z" fill="#DB4239"/>
<path d="M190.361 184.892L186.435 192.095C186.435 192.095 181.905 169.947 170.039 151.034L164.693 154.528C164.693 154.528 170.23 216.136 184.492 213.804C198.754 211.473 207.077 195.86 207.077 195.86L190.361 184.892Z" fill="#CA846F"/>
<path d="M168.908 146.584C168.837 146.302 168.698 146.042 168.504 145.826C168.31 145.609 168.066 145.443 167.793 145.342L167.202 145.121L161.884 134.044L161.723 134.235C161.399 134.615 161.182 135.074 161.093 135.565C161.005 136.056 161.049 136.562 161.22 137.031L163.55 143.429L160.895 146.584C160.467 147.09 160.235 147.732 160.239 148.393C160.244 149.055 160.485 149.693 160.92 150.193L164.695 154.536L170.041 151.042L168.908 146.584Z" fill="#CA846F"/>
<path d="M167.036 147.314H167.008C166.993 147.314 165.408 146.94 164.424 146.694C163.359 146.428 163.13 144.621 163.12 144.543C163.118 144.525 163.12 144.507 163.126 144.49C163.132 144.473 163.142 144.458 163.155 144.445C163.169 144.433 163.185 144.423 163.202 144.418C163.219 144.412 163.238 144.41 163.256 144.413L167.22 145.015C167.251 145.02 167.279 145.037 167.297 145.062C167.316 145.087 167.324 145.119 167.319 145.15C167.315 145.18 167.298 145.208 167.272 145.227C167.247 145.246 167.216 145.253 167.185 145.249L163.379 144.671C163.457 145.101 163.739 146.28 164.482 146.466C165.466 146.717 167.046 147.081 167.064 147.086C167.094 147.093 167.12 147.112 167.137 147.138C167.153 147.165 167.159 147.196 167.152 147.227C167.145 147.252 167.13 147.274 167.109 147.29C167.088 147.306 167.062 147.314 167.036 147.314Z" fill="#252B40"/>
<path d="M165.461 148.81C164.631 148.81 163.616 148.326 162.897 147.909C162.589 147.732 162.322 147.492 162.113 147.205C161.905 146.917 161.759 146.59 161.686 146.243L161.563 145.67C161.557 145.639 161.563 145.607 161.581 145.581C161.598 145.555 161.625 145.536 161.656 145.53C161.687 145.524 161.718 145.53 161.744 145.548C161.77 145.565 161.788 145.592 161.794 145.623L161.918 146.195C161.985 146.509 162.118 146.805 162.307 147.064C162.497 147.324 162.739 147.541 163.017 147.701C163.742 148.12 164.779 148.612 165.562 148.567C165.854 148.552 166.216 148.464 166.279 148.148C166.354 147.764 165.979 147.169 165.524 146.948C165.496 146.934 165.475 146.91 165.464 146.88C165.454 146.851 165.455 146.818 165.469 146.79C165.483 146.762 165.507 146.741 165.537 146.73C165.566 146.72 165.599 146.721 165.627 146.735C166.13 146.986 166.634 147.656 166.518 148.193C166.478 148.404 166.299 148.763 165.582 148.803L165.461 148.81Z" fill="#252B40"/>
<path d="M164.339 150.254C164.264 150.254 164.189 150.247 164.115 150.234C162.993 150.005 161.963 149.456 161.15 148.652C160.712 148.218 160.534 147.013 160.529 146.961C160.524 146.93 160.532 146.899 160.55 146.874C160.569 146.849 160.596 146.832 160.627 146.827C160.658 146.823 160.69 146.831 160.715 146.85C160.741 146.869 160.758 146.897 160.763 146.928C160.763 146.928 160.934 148.105 161.316 148.484C162.096 149.25 163.083 149.773 164.155 149.99C164.252 150.019 164.354 150.022 164.452 149.999C164.551 149.977 164.642 149.93 164.716 149.862C164.968 149.586 164.86 148.938 164.797 148.712C164.793 148.697 164.792 148.682 164.793 148.666C164.795 148.651 164.8 148.636 164.808 148.623C164.816 148.609 164.826 148.597 164.838 148.588C164.851 148.578 164.865 148.571 164.88 148.567C164.895 148.563 164.911 148.562 164.926 148.564C164.942 148.566 164.956 148.57 164.97 148.578C164.984 148.586 164.995 148.596 165.005 148.608C165.015 148.621 165.022 148.635 165.026 148.65C165.026 148.687 165.277 149.588 164.892 150.02C164.823 150.097 164.737 150.158 164.642 150.199C164.546 150.239 164.443 150.258 164.339 150.254Z" fill="#252B40"/>
<path d="M162.589 151.029C162.503 151.029 162.418 151.013 162.338 150.984C161.563 150.705 160.324 149.348 160.277 149.29C160.255 149.266 160.245 149.236 160.246 149.204C160.248 149.173 160.262 149.144 160.285 149.123C160.309 149.102 160.339 149.091 160.371 149.093C160.402 149.094 160.432 149.108 160.453 149.132C160.453 149.147 161.698 150.502 162.418 150.761C162.464 150.787 162.517 150.801 162.57 150.801C162.624 150.801 162.676 150.787 162.723 150.761C162.922 150.61 162.929 150.123 162.916 149.95C162.914 149.919 162.924 149.888 162.945 149.864C162.965 149.84 162.995 149.825 163.026 149.823C163.057 149.821 163.088 149.831 163.112 149.851C163.136 149.872 163.151 149.901 163.153 149.932C163.153 150.008 163.203 150.685 162.866 150.949C162.785 151.005 162.688 151.033 162.589 151.029Z" fill="#252B40"/>
<path d="M229.565 155.62L257.722 167.673L250.655 229.545H200.485L208.677 159.415L229.565 155.62Z" fill="#1953A0"/>
<path d="M222.897 132.699C222.897 132.699 216.202 129.069 219.325 119.461C219.325 119.461 242.856 117.777 248.519 124.002C253.592 129.584 248.876 132.699 248.876 132.699C248.876 132.699 253.957 147.616 238.608 151.253L232.792 135.058L222.897 132.699Z" fill="#252B40"/>
<path d="M244.25 140.723C242.783 135.864 239.043 140.645 239.043 140.645C239.043 140.645 236.869 138.314 236.73 138.319C236.592 138.324 236.463 133.55 236.446 132.97C233.426 133.221 228.694 133.103 224.32 130.711C224.32 130.711 217.593 139.225 217.289 146.484C217.26 147.121 217.402 147.755 217.701 148.32C218 148.884 218.445 149.359 218.99 149.694C220.296 150.495 222.514 151.268 226.037 151.024L223.377 156.044C222.844 157.045 222.548 158.154 222.511 159.287C222.473 160.42 222.695 161.546 223.16 162.58C223.625 163.614 224.321 164.528 225.194 165.253C226.067 165.979 227.095 166.495 228.199 166.764L228.423 166.817C229.436 167.041 230.485 167.051 231.502 166.848C232.52 166.644 233.484 166.231 234.332 165.634C235.18 165.037 235.894 164.271 236.428 163.383C236.962 162.496 237.304 161.506 237.432 160.479L239.056 147.799C239.056 147.799 245.586 145.148 244.25 140.723Z" fill="#CA846F"/>
<path d="M226.323 134.993C226.071 135.749 225.749 136.48 225.36 137.177C224.983 137.863 224.569 138.528 224.119 139.169C223.894 139.487 223.662 139.801 223.422 140.111C223.301 140.264 223.183 140.419 223.054 140.568L222.866 140.793C222.841 140.813 222.819 140.836 222.8 140.861C222.784 140.895 222.776 140.931 222.776 140.968C222.776 141.005 222.784 141.041 222.8 141.075C222.817 141.117 222.843 141.156 222.876 141.188C222.894 141.205 222.914 141.22 222.936 141.233L222.974 141.253L223.042 141.27C223.432 141.373 223.815 141.498 224.189 141.647C223.796 141.739 223.398 141.807 222.996 141.85H222.918H222.81C222.737 141.844 222.664 141.83 222.594 141.807C222.447 141.76 222.314 141.679 222.204 141.572C222.09 141.457 222.003 141.318 221.95 141.165C221.897 141.012 221.88 140.849 221.899 140.688C221.922 140.523 221.978 140.365 222.065 140.224L222.211 139.973C222.309 139.802 222.415 139.636 222.516 139.471C222.722 139.137 222.941 138.813 223.163 138.492C223.612 137.851 224.096 137.235 224.612 136.647C225.129 136.043 225.702 135.489 226.323 134.993Z" fill="#252B40"/>
<path d="M229.098 138.301C228.707 139.054 228.041 139.506 227.608 139.287C227.175 139.069 227.137 138.268 227.525 137.505C227.912 136.742 228.582 136.298 229.014 136.519C229.447 136.74 229.485 137.53 229.098 138.301Z" fill="#252B40"/>
<path d="M224.072 135.889C223.684 136.642 223.017 137.094 222.582 136.875C222.146 136.657 222.111 135.859 222.501 135.093C222.891 134.328 223.556 133.886 223.991 134.107C224.427 134.328 224.462 135.123 224.072 135.889Z" fill="#252B40"/>
<path d="M227.363 134.86L232.865 136.346L232.178 134.375L228.425 134.049L227.363 134.86Z" fill="#252B40"/>
<path d="M219.401 143.434C219.401 143.434 221.575 145.663 227.862 144.373C227.862 144.373 224.983 148.241 222.046 147.274C219.109 146.308 219.401 143.434 219.401 143.434Z" fill="white"/>
<path d="M225.997 134.35L222.896 132.699L223.755 131.474L225.864 132.947L225.997 134.35Z" fill="#252B40"/>
<path d="M226.024 151.27C225.965 151.264 225.911 151.237 225.871 151.193C225.832 151.149 225.81 151.092 225.81 151.033C225.81 150.974 225.832 150.917 225.871 150.873C225.911 150.829 225.965 150.802 226.024 150.796C226.069 150.796 230.542 150.766 234.568 148.657C234.596 148.641 234.626 148.631 234.658 148.627C234.689 148.624 234.721 148.626 234.752 148.635C234.782 148.644 234.811 148.659 234.835 148.678C234.86 148.698 234.88 148.723 234.895 148.751C234.91 148.779 234.919 148.81 234.922 148.841C234.925 148.873 234.921 148.905 234.911 148.935C234.901 148.965 234.886 148.993 234.865 149.017C234.844 149.041 234.818 149.06 234.79 149.074C230.655 151.238 226.069 151.27 226.024 151.27Z" fill="#252B40"/>
<path d="M186.316 186.222L203.971 199.713L208.677 159.415L186.316 186.222Z" fill="#DB4239"/>
<path d="M260.044 184.544L189.529 195.821L196.575 239.641L267.089 228.364L260.044 184.544Z" fill="#EDBFA2"/>
<path d="M260.043 184.546L240.126 187.731L247.171 231.551L267.088 228.366L260.043 184.546Z" fill="#DFA680"/>
<path d="M247.829 168.43L198.178 176.37L201.01 193.984L250.661 186.043L247.829 168.43Z" fill="#EDBFA2"/>
<path d="M247.828 168.431L229.959 171.289L232.791 188.903L250.66 186.045L247.828 168.431Z" fill="#DFA680"/>
<path d="M223.495 222.998L219.71 221.771L218.427 223.809L213.315 192.018L218.384 191.207L223.495 222.998Z" fill="#DFA680"/>
<path d="M258.29 214.713L254.79 215.396L253.657 218.224L248.546 186.433L253.614 185.622L258.29 214.713Z" fill="#EDBFA2"/>
<path d="M201.012 194.221C200.956 194.219 200.903 194.198 200.861 194.162C200.818 194.126 200.789 194.077 200.778 194.023C200.772 193.992 200.774 193.961 200.781 193.931C200.788 193.9 200.801 193.872 200.819 193.847C200.837 193.822 200.86 193.8 200.887 193.784C200.914 193.768 200.943 193.757 200.974 193.752L235.679 188.202C235.738 188.197 235.797 188.215 235.844 188.252C235.891 188.288 235.922 188.341 235.932 188.4C235.941 188.458 235.928 188.518 235.895 188.568C235.862 188.617 235.812 188.653 235.754 188.667L201.049 194.216L201.012 194.221Z" fill="#252B40"/>
<path d="M215.021 173.677L216.287 181.779L219.655 178.667L218.882 173.059L215.021 173.677Z" fill="#DFA680"/>
<path d="M238.062 169.992L239.34 177.419L240.659 175.454L242.053 176.551L240.822 169.551L238.062 169.992Z" fill="#EDBFA2"/>
<path d="M271.165 199.914C271.165 199.914 279.282 217.635 273.657 219.128C269.998 220.097 220.963 218.224 220.963 218.224L221.635 211.447C221.635 211.447 254.304 205.702 263.512 206.116L262.672 200.885L271.165 199.914Z" fill="#CA846F"/>
<path d="M221.636 211.437L208.239 209.753C208.159 209.743 208.078 209.753 208.002 209.783C207.927 209.813 207.86 209.861 207.809 209.923C207.757 209.985 207.721 210.058 207.706 210.138C207.69 210.217 207.694 210.299 207.718 210.376L208.473 212.803C208.913 214.22 209.867 215.422 211.149 216.174L213.532 217.569C214.861 218.345 216.387 218.721 217.926 218.651L224.419 218.352L221.636 211.437Z" fill="#CA846F"/>
<path d="M222.275 211.324L219.957 209.585C219.475 209.224 218.919 208.973 218.329 208.85L214.898 208.132C214.857 208.124 214.814 208.127 214.774 208.142C214.734 208.156 214.7 208.182 214.674 208.215C214.647 208.248 214.631 208.288 214.626 208.33C214.622 208.372 214.629 208.415 214.647 208.453L215.07 209.319C215.175 209.537 215.343 209.718 215.553 209.839L220.964 212.961L222.275 211.324Z" fill="#CA846F"/>
<path d="M216.954 213.079L212.676 212.717H212.656L207.97 211.39C207.953 211.387 207.938 211.381 207.924 211.372C207.91 211.363 207.898 211.351 207.889 211.337C207.88 211.323 207.874 211.307 207.871 211.291C207.869 211.274 207.87 211.258 207.874 211.242C207.879 211.226 207.887 211.211 207.897 211.198C207.908 211.185 207.921 211.175 207.936 211.167C207.951 211.16 207.967 211.156 207.984 211.155C208.001 211.155 208.017 211.158 208.033 211.164L212.709 212.489L216.962 212.848C216.977 212.849 216.992 212.854 217.006 212.861C217.02 212.868 217.033 212.878 217.043 212.89C217.053 212.901 217.06 212.915 217.065 212.93C217.07 212.945 217.071 212.961 217.07 212.976C217.067 213.004 217.053 213.031 217.032 213.05C217.011 213.069 216.983 213.079 216.954 213.079Z" fill="#252B40"/>
<path d="M216.783 214.961H216.766L212.457 214.321L208.549 213.237C208.519 213.228 208.494 213.208 208.479 213.181C208.463 213.154 208.46 213.121 208.468 213.091C208.477 213.061 208.497 213.036 208.525 213.021C208.552 213.005 208.584 213.001 208.614 213.009L212.508 214.103L216.801 214.741C216.829 214.746 216.854 214.762 216.872 214.785C216.889 214.808 216.898 214.836 216.895 214.865C216.893 214.894 216.881 214.921 216.86 214.941C216.84 214.961 216.812 214.973 216.783 214.974V214.961Z" fill="#252B40"/>
<path d="M217.224 217.1H217.196L213.038 216.031L209.545 214.961C209.516 214.951 209.492 214.93 209.477 214.903C209.463 214.875 209.459 214.843 209.467 214.813C209.472 214.798 209.479 214.785 209.489 214.773C209.499 214.761 209.511 214.751 209.525 214.744C209.539 214.736 209.554 214.732 209.57 214.731C209.585 214.729 209.601 214.731 209.616 214.736L213.101 215.805L217.254 216.872C217.284 216.88 217.309 216.899 217.325 216.926C217.341 216.953 217.346 216.984 217.339 217.015C217.332 217.04 217.317 217.061 217.296 217.077C217.275 217.092 217.25 217.1 217.224 217.1Z" fill="#252B40"/>
<path d="M219.231 211.39H219.201L217.354 211.021C217.324 211.013 217.298 210.995 217.282 210.969C217.266 210.943 217.26 210.912 217.266 210.882C217.272 210.852 217.29 210.826 217.315 210.809C217.341 210.791 217.372 210.785 217.402 210.79L219.246 211.159C219.277 211.165 219.304 211.183 219.322 211.209C219.339 211.235 219.346 211.266 219.34 211.297C219.335 211.322 219.321 211.345 219.302 211.362C219.282 211.379 219.257 211.389 219.231 211.39Z" fill="#252B40"/>
<path d="M240.725 145.668C240.669 145.668 240.615 145.649 240.572 145.614C240.529 145.579 240.5 145.53 240.49 145.475C240.479 145.421 240.489 145.364 240.516 145.316C240.543 145.268 240.587 145.231 240.639 145.211C242.839 144.368 242.446 141.526 242.235 140.537L239.887 142.365C239.836 142.399 239.774 142.414 239.712 142.406C239.651 142.399 239.595 142.369 239.554 142.322C239.535 142.298 239.521 142.27 239.513 142.24C239.504 142.21 239.502 142.179 239.506 142.148C239.509 142.117 239.519 142.088 239.534 142.061C239.55 142.034 239.57 142.01 239.595 141.991L242.506 139.732L242.607 140.058C242.607 140.101 243.885 144.471 240.81 145.65C240.783 145.661 240.754 145.667 240.725 145.668Z" fill="#252B40"/>
<path d="M135.975 83.3596C136.4 82.0572 136.509 80.6731 136.294 79.3205C136.079 77.9679 135.547 76.6852 134.74 75.5773C133.933 74.4693 132.874 73.5676 131.651 72.9459C130.427 72.3241 129.074 72 127.701 72C126.327 72 124.974 72.3241 123.75 72.9459C122.527 73.5676 121.469 74.4693 120.661 75.5773C119.854 76.6852 119.322 77.9679 119.107 79.3205C118.892 80.6731 119.002 82.0572 119.426 83.3596C120.881 88.8397 125.642 95.5925 127.208 97.6981C127.265 97.7761 127.341 97.8395 127.427 97.8832C127.514 97.927 127.609 97.9497 127.706 97.9497C127.804 97.9497 127.899 97.927 127.986 97.8832C128.072 97.8395 128.147 97.7761 128.205 97.6981C129.758 95.5925 134.515 88.8397 135.975 83.3596Z" fill="#1953A0"/>
<path d="M132.606 80.3082C132.886 77.6086 130.918 75.1944 128.211 74.9159C125.504 74.6374 123.084 76.6001 122.804 79.2997C122.525 81.9992 124.493 84.4135 127.2 84.6919C129.907 84.9704 132.327 83.0078 132.606 80.3082Z" fill="white"/>
<path d="M126.509 204.1H127.363L128.714 208.034L130.079 204.1H130.912L129.197 209H128.231L126.509 204.1ZM134.281 208.342V209H133.882C133.644 209 133.476 208.951 133.378 208.853C133.273 208.755 133.224 208.615 133.224 208.426C132.951 208.839 132.559 209.042 132.041 209.042C131.635 209.042 131.313 208.951 131.075 208.762C130.83 208.58 130.711 208.321 130.711 207.992C130.711 207.628 130.837 207.341 131.103 207.145C131.362 206.949 131.74 206.844 132.244 206.844H133.147V206.627C133.147 206.431 133.077 206.27 132.937 206.158C132.797 206.046 132.601 205.983 132.356 205.983C132.132 205.983 131.95 206.032 131.81 206.13C131.67 206.228 131.586 206.354 131.558 206.508H130.816C130.851 206.151 131.012 205.871 131.292 205.675C131.572 205.479 131.936 205.374 132.391 205.374C132.867 205.374 133.238 205.486 133.504 205.71C133.763 205.934 133.896 206.256 133.896 206.676V208.09C133.896 208.258 133.973 208.342 134.134 208.342H134.281ZM133.147 207.404H132.209C131.971 207.404 131.796 207.453 131.67 207.544C131.544 207.635 131.481 207.768 131.481 207.943C131.481 208.097 131.537 208.223 131.656 208.314C131.775 208.412 131.936 208.454 132.146 208.454C132.454 208.454 132.699 208.37 132.874 208.202C133.049 208.034 133.14 207.81 133.147 207.53V207.404ZM134.693 204.1H135.449V209H134.693V204.1ZM136.897 204.114C136.981 204.198 137.03 204.31 137.03 204.436C137.03 204.569 136.981 204.681 136.897 204.765C136.806 204.849 136.694 204.891 136.568 204.891C136.435 204.891 136.323 204.849 136.239 204.765C136.148 204.681 136.106 204.569 136.106 204.436C136.106 204.31 136.148 204.198 136.239 204.114C136.323 204.03 136.435 203.981 136.568 203.981C136.694 203.981 136.806 204.03 136.897 204.114ZM136.19 205.416H136.946V209H136.19V205.416ZM141.166 204.1V209H140.508L140.417 208.461C140.13 208.853 139.738 209.042 139.248 209.042C138.919 209.042 138.625 208.972 138.373 208.825C138.114 208.678 137.911 208.468 137.771 208.188C137.624 207.908 137.554 207.586 137.554 207.208C137.554 206.844 137.624 206.529 137.771 206.249C137.918 205.969 138.121 205.759 138.38 205.605C138.632 205.451 138.926 205.374 139.248 205.374C139.507 205.374 139.738 205.423 139.934 205.521C140.13 205.619 140.284 205.745 140.41 205.913V204.1H141.166ZM140.13 208.076C140.319 207.859 140.417 207.572 140.417 207.222C140.417 206.865 140.319 206.578 140.13 206.354C139.934 206.13 139.682 206.018 139.374 206.018C139.059 206.018 138.807 206.13 138.618 206.354C138.422 206.578 138.331 206.858 138.331 207.208C138.331 207.565 138.422 207.852 138.618 208.076C138.807 208.3 139.059 208.405 139.374 208.405C139.682 208.405 139.934 208.3 140.13 208.076ZM141.989 206.249C142.136 205.969 142.339 205.759 142.605 205.605C142.871 205.451 143.172 205.374 143.515 205.374C143.858 205.374 144.159 205.444 144.425 205.584C144.691 205.724 144.894 205.927 145.048 206.179C145.202 206.438 145.279 206.739 145.286 207.082C145.286 207.18 145.279 207.271 145.265 207.369H142.563V207.411C142.577 207.726 142.675 207.971 142.857 208.153C143.032 208.335 143.27 208.426 143.564 208.426C143.795 208.426 143.991 208.377 144.152 208.265C144.306 208.153 144.411 207.999 144.467 207.796H145.223C145.153 208.16 144.978 208.461 144.691 208.692C144.404 208.93 144.047 209.042 143.62 209.042C143.242 209.042 142.92 208.972 142.64 208.818C142.36 208.664 142.15 208.454 141.996 208.174C141.842 207.901 141.772 207.579 141.772 207.215C141.772 206.851 141.842 206.529 141.989 206.249ZM144.516 206.816C144.481 206.557 144.376 206.354 144.201 206.207C144.026 206.06 143.809 205.983 143.543 205.983C143.291 205.983 143.081 206.06 142.899 206.214C142.717 206.368 142.619 206.564 142.591 206.816H144.516ZM143.235 205.01L143.795 204.044H144.67L143.809 205.01H143.235Z" fill="white"/>
</svg>
