<svg width="24" height="24" viewBox="0 0 24 24" fill="none" xmlns="http://www.w3.org/2000/svg">
<g clip-path="url(#clip0_459_3516)">
<path d="M19.7143 16.2856H21.4285C21.8832 16.2856 22.3192 16.105 22.6407 15.7835C22.9622 15.4621 23.1428 15.026 23.1428 14.5714V11.9999C23.1428 11.5453 22.9622 11.1092 22.6407 10.7877C22.3192 10.4663 21.8832 10.2856 21.4285 10.2856H19.7143C19.4869 10.2856 19.2689 10.376 19.1082 10.5367C18.9474 10.6974 18.8571 10.9155 18.8571 11.1428V15.4285C18.8571 15.6558 18.9474 15.8738 19.1082 16.0346C19.2689 16.1953 19.4869 16.2856 19.7143 16.2856ZM19.7143 16.2856V17.5714C19.7143 18.4807 19.353 19.3527 18.7101 19.9957C18.0671 20.6387 17.195 20.9999 16.2857 20.9999M2.5714 10.2856H4.28569C4.51302 10.2856 4.73103 10.376 4.89178 10.5367C5.05252 10.6974 5.14283 10.9155 5.14283 11.1428V15.4285C5.14283 15.6558 5.05252 15.8738 4.89178 16.0346C4.73103 16.1953 4.51302 16.2856 4.28569 16.2856H2.5714C2.11675 16.2856 1.68071 16.105 1.35922 15.7835C1.03773 15.4621 0.857117 15.026 0.857117 14.5714V11.9999C0.857117 11.5453 1.03773 11.1092 1.35922 10.7877C1.68071 10.4663 2.11675 10.2856 2.5714 10.2856Z" stroke="#292D32" stroke-width="1.5" stroke-linecap="round" stroke-linejoin="round"/>
<path d="M4.28571 10.2855V8.57122C4.28571 6.52526 5.09846 4.5631 6.54517 3.1164C7.99188 1.66969 9.95404 0.856934 12 0.856934C14.0459 0.856934 16.0081 1.66969 17.4548 3.1164C18.9015 4.5631 19.7143 6.52526 19.7143 8.57122V10.2855M14.1428 18.8569C14.7112 18.8569 15.2562 19.0827 15.6581 19.4846C16.0599 19.8864 16.2857 20.4315 16.2857 20.9998C16.2857 21.5681 16.0599 22.1132 15.6581 22.515C15.2562 22.9169 14.7112 23.1426 14.1428 23.1426H11.5714C11.0031 23.1426 10.4581 22.9169 10.0562 22.515C9.65433 22.1132 9.42856 21.5681 9.42856 20.9998C9.42856 20.4315 9.65433 19.8864 10.0562 19.4846C10.4581 19.0827 11.0031 18.8569 11.5714 18.8569H14.1428Z" stroke="#292D32" stroke-width="1.5" stroke-linecap="round" stroke-linejoin="round"/>
</g>
<defs>
<clipPath id="clip0_459_3516">
<rect width="24" height="24" fill="white"/>
</clipPath>
</defs>
</svg>
