<svg width="24" height="25" viewBox="0 0 24 25" fill="none" xmlns="http://www.w3.org/2000/svg">
<path d="M5.1997 10.783C5.0097 10.783 4.8097 10.703 4.6697 10.563C4.4597 10.343 4.3897 10.023 4.5097 9.74297L6.3697 5.30297C6.4097 5.21297 6.4297 5.15297 6.4597 5.10297C7.9397 1.69297 9.8297 0.862967 13.1697 2.14297C13.3597 2.21297 13.5097 2.36297 13.5897 2.55297C13.6697 2.74297 13.6697 2.95297 13.5897 3.14297L10.6597 9.94297C10.5397 10.223 10.2697 10.393 9.9697 10.393H7.1197C6.5497 10.393 6.0097 10.503 5.4897 10.723C5.3997 10.763 5.2997 10.783 5.1997 10.783ZM10.6097 3.07297C9.3697 3.07297 8.6097 3.88297 7.8197 5.72297C7.8097 5.75297 7.7897 5.78297 7.7797 5.81297L6.4697 8.92297C6.6897 8.90297 6.8997 8.89297 7.1197 8.89297H9.4697L11.8797 3.29297C11.4097 3.14297 10.9897 3.07297 10.6097 3.07297Z" fill="#292D32"/>
<path d="M18.2902 10.593C18.2202 10.593 18.1402 10.583 18.0702 10.563C17.6902 10.453 17.2902 10.393 16.8702 10.393H9.97023C9.72023 10.393 9.48023 10.263 9.34023 10.053C9.21023 9.84296 9.18023 9.57296 9.28023 9.34296L12.1802 2.61296C12.3302 2.25296 12.7702 2.00296 13.1402 2.13296C13.2602 2.17296 13.3702 2.22296 13.4902 2.27296L15.8502 3.26296C17.2302 3.83296 18.1502 4.43296 18.7502 5.15296C18.8702 5.29296 18.9702 5.44296 19.0702 5.60296C19.1802 5.77296 19.2802 5.97296 19.3502 6.18296C19.3802 6.25296 19.4302 6.38296 19.4602 6.52296C19.7402 7.47296 19.6002 8.63296 19.0002 10.133C18.8702 10.413 18.5902 10.593 18.2902 10.593ZM11.1102 8.89296H16.8802C17.2002 8.89296 17.5102 8.92296 17.8202 8.97296C18.1002 8.10296 18.1602 7.43296 18.0002 6.89296C17.9802 6.80296 17.9602 6.76296 17.9502 6.72296C17.8902 6.56296 17.8502 6.47296 17.8002 6.39296C17.7302 6.28296 17.6802 6.19296 17.6002 6.10296C17.1702 5.58296 16.4102 5.10296 15.2702 4.63296L13.3002 3.81296L11.1102 8.89296Z" fill="#292D32"/>
<path d="M15.9 23.073H8.1C7.82 23.073 7.56 23.053 7.3 23.023C3.79 22.793 1.79 20.783 1.55 17.233C1.52 17.013 1.5 16.743 1.5 16.473V14.523C1.5 12.273 2.84 10.243 4.91 9.34298C5.62 9.04298 6.36 8.89297 7.13 8.89297H16.89C17.46 8.89297 18.01 8.97298 18.52 9.13298C20.87 9.84298 22.52 12.063 22.52 14.523V16.473C22.52 16.693 22.51 16.903 22.5 17.103C22.28 21.013 20 23.073 15.9 23.073ZM7.12 10.393C6.55 10.393 6.01 10.503 5.49 10.723C3.97 11.383 2.99 12.873 2.99 14.523V16.473C2.99 16.683 3.01 16.893 3.03 17.093C3.22 19.943 4.62 21.343 7.43 21.533C7.68 21.563 7.88 21.583 8.09 21.583H15.89C19.19 21.583 20.81 20.133 20.97 17.033C20.98 16.853 20.99 16.673 20.99 16.473V14.523C20.99 12.713 19.78 11.093 18.06 10.563C17.68 10.453 17.28 10.393 16.86 10.393H7.12Z" fill="#292D32"/>
<path d="M2.24023 15.273C1.83023 15.273 1.49023 14.933 1.49023 14.523V11.593C1.49023 8.44297 3.72023 5.72297 6.80023 5.12297C7.07023 5.07297 7.35023 5.17297 7.53023 5.38297C7.70023 5.59297 7.75023 5.89297 7.64023 6.14297L5.89023 10.323C5.81023 10.503 5.67023 10.643 5.50023 10.723C3.98023 11.383 3.00023 12.873 3.00023 14.523C2.99023 14.933 2.66023 15.273 2.24023 15.273ZM5.60023 7.14297C4.32023 7.86297 3.39023 9.12297 3.10023 10.593C3.54023 10.143 4.05023 9.76297 4.63023 9.48297L5.60023 7.14297Z" fill="#292D32"/>
<path d="M21.7601 15.273C21.3501 15.273 21.0101 14.933 21.0101 14.523C21.0101 12.713 19.8001 11.093 18.0801 10.563C17.8801 10.503 17.7101 10.363 17.6201 10.173C17.5301 9.98297 17.5201 9.76297 17.6001 9.57297C18.0701 8.40297 18.1901 7.55297 18.0001 6.89297C17.9801 6.80297 17.9601 6.76297 17.9501 6.72297C17.8201 6.43297 17.8901 6.09297 18.1201 5.87297C18.3501 5.65297 18.7001 5.60297 18.9801 5.75297C21.1601 6.89297 22.5101 9.13297 22.5101 11.593V14.523C22.5101 14.933 22.1701 15.273 21.7601 15.273ZM19.2501 9.41297C19.8801 9.70297 20.4401 10.113 20.9101 10.603C20.7201 9.62297 20.2501 8.73297 19.5601 8.03297C19.5101 8.45297 19.4101 8.91297 19.2501 9.41297Z" fill="#292D32"/>
</svg>
