<svg width="78" height="52" viewBox="0 0 78 52" fill="none" xmlns="http://www.w3.org/2000/svg">
<path d="M57.0499 44.9646H25.1412M72.2499 44.9646H72.4735C74.9734 44.9646 77 42.9381 77 40.4381V29.2419C77 27.7501 76.2651 26.3542 75.0352 25.51L70.4058 22.3323L65.9821 4.63739C65.4783 2.62236 63.6679 1.20874 61.5908 1.20874H46.2647H4.01765C2.35105 1.20874 1 2.55974 1 4.22639V40.4381C1 42.9381 3.02658 44.9646 5.52647 44.9646H10.5" stroke="#00489A" stroke-width="1.5" stroke-linejoin="round"/>
<path d="M17.5971 50.9998C21.7636 50.9998 25.1412 47.6222 25.1412 43.4557C25.1412 39.2892 21.7636 35.9116 17.5971 35.9116C13.4306 35.9116 10.053 39.2892 10.053 43.4557C10.053 47.6222 13.4306 50.9998 17.5971 50.9998Z" stroke="#00489A" stroke-width="1.5"/>
<path d="M17.597 46.4735C19.2636 46.4735 20.6146 45.1225 20.6146 43.4559C20.6146 41.7893 19.2636 40.4382 17.597 40.4382C15.9304 40.4382 14.5793 41.7893 14.5793 43.4559C14.5793 45.1225 15.9304 46.4735 17.597 46.4735Z" stroke="#00489A" stroke-width="1.5"/>
<path d="M64.3705 50.9998C68.537 50.9998 71.9146 47.6222 71.9146 43.4557C71.9146 39.2892 68.537 35.9116 64.3705 35.9116C60.204 35.9116 56.8264 39.2892 56.8264 43.4557C56.8264 47.6222 60.204 50.9998 64.3705 50.9998Z" stroke="#00489A" stroke-width="1.5"/>
<path d="M64.3707 46.4735C66.0373 46.4735 67.3883 45.1225 67.3883 43.4559C67.3883 41.7893 66.0373 40.4382 64.3707 40.4382C62.7041 40.4382 61.353 41.7893 61.353 43.4559C61.353 45.1225 62.7041 46.4735 64.3707 46.4735Z" stroke="#00489A" stroke-width="1.5"/>
<path d="M76.4412 34.4029C74.7746 34.4029 73.4236 33.3896 73.4236 32.1397C73.4236 30.8898 74.7746 29.8765 76.4412 29.8765" stroke="#00489A" stroke-width="1.5"/>
<path d="M44.7558 5.73511H5.52637V25.3498H44.7558V5.73511Z" stroke="#DC3D3D" stroke-width="1.5" stroke-linejoin="round"/>
<path d="M26.6501 23.0867C26.6501 21.8368 25.6367 20.8235 24.3868 20.8235C23.1369 20.8235 22.1236 21.8368 22.1236 23.0867C22.1236 24.3367 23.1369 25.35 24.3868 25.35C25.6367 25.35 26.6501 24.3367 26.6501 23.0867ZM26.6501 23.0867C26.6501 21.8368 27.6634 20.8235 28.9133 20.8235C30.1632 20.8235 31.1765 21.8368 31.1765 23.0867C31.1765 24.3367 30.1632 25.35 28.9133 25.35C27.6634 25.35 26.6501 24.3367 26.6501 23.0867ZM8.54419 16.297C8.54419 15.4637 9.21969 14.7882 10.053 14.7882H20.6148C21.4481 14.7882 22.1236 15.4637 22.1236 16.297V25.35H8.54419V16.297ZM50.0368 11.7706C50.0368 10.1039 51.3878 8.75293 53.0545 8.75293H66.6339L70.4059 22.3323H53.0545C51.3878 22.3323 50.0368 20.9813 50.0368 19.3147V11.7706Z" stroke="#DC3D3D" stroke-width="1.5" stroke-linejoin="round"/>
<path d="M44.7558 31.3853H5.52637" stroke="#00489A" stroke-width="1.5" stroke-linecap="round"/>
</svg>
