<svg width="66" height="44" viewBox="0 0 66 44" fill="none" xmlns="http://www.w3.org/2000/svg">
<path d="M7.042 5C6.77748 5.00421 6.5254 5.11306 6.34097 5.30273C6.15654 5.49241 6.05479 5.74742 6.058 6.01196V22C6.058 22.2652 6.16336 22.5197 6.35089 22.7073C6.53843 22.8948 6.79278 23 7.058 23C7.32322 23 7.57757 22.8948 7.76511 22.7073C7.95264 22.5197 8.058 22.2652 8.058 22V6.01196C8.05962 5.87828 8.03442 5.7456 7.98388 5.62183C7.93335 5.49805 7.85851 5.38585 7.76378 5.2915C7.66906 5.19715 7.55638 5.12256 7.4324 5.07251C7.30843 5.02246 7.17568 4.99785 7.042 5Z" fill="#DC3D3D"/>
<path d="M13.042 5C12.7775 5.00421 12.5254 5.11306 12.341 5.30273C12.1565 5.49241 12.0548 5.74742 12.058 6.01196V22C12.058 22.2652 12.1634 22.5197 12.3509 22.7073C12.5384 22.8948 12.7928 23 13.058 23C13.3232 23 13.5776 22.8948 13.7651 22.7073C13.9526 22.5197 14.058 22.2652 14.058 22V6.01196C14.0596 5.87828 14.0344 5.7456 13.9839 5.62183C13.9333 5.49805 13.8585 5.38585 13.7638 5.2915C13.6691 5.19715 13.5564 5.12256 13.4324 5.07251C13.3084 5.02246 13.1757 4.99785 13.042 5Z" fill="#DB4239"/>
<path d="M19.042 5C18.7775 5.00421 18.5254 5.11306 18.341 5.30273C18.1565 5.49241 18.0548 5.74742 18.058 6.01196V22C18.058 22.2652 18.1634 22.5197 18.3509 22.7073C18.5384 22.8948 18.7928 23 19.058 23C19.3232 23 19.5776 22.8948 19.7651 22.7073C19.9526 22.5197 20.058 22.2652 20.058 22V6.01196C20.0596 5.87828 20.0344 5.7456 19.9839 5.62183C19.9333 5.49805 19.8585 5.38585 19.7638 5.2915C19.6691 5.19715 19.5564 5.12256 19.4324 5.07251C19.3084 5.02246 19.1757 4.99785 19.042 5Z" fill="#DC3D3D"/>
<path d="M25.042 5C24.7775 5.00421 24.5254 5.11306 24.341 5.30273C24.1565 5.49241 24.0548 5.74742 24.058 6.01196V22C24.058 22.2652 24.1634 22.5197 24.3509 22.7073C24.5384 22.8948 24.7928 23 25.058 23C25.3232 23 25.5776 22.8948 25.7651 22.7073C25.9526 22.5197 26.058 22.2652 26.058 22V6.01196C26.0596 5.87828 26.0344 5.7456 25.9839 5.62183C25.9333 5.49805 25.8585 5.38585 25.7638 5.2915C25.6691 5.19715 25.5564 5.12256 25.4324 5.07251C25.3084 5.02246 25.1757 4.99785 25.042 5Z" fill="#DC3D3D"/>
<path d="M31.042 5C30.7775 5.00421 30.5254 5.11306 30.341 5.30273C30.1565 5.49241 30.0548 5.74742 30.058 6.01196V22C30.058 22.2652 30.1634 22.5197 30.3509 22.7073C30.5384 22.8948 30.7928 23 31.058 23C31.3232 23 31.5776 22.8948 31.7651 22.7073C31.9526 22.5197 32.058 22.2652 32.058 22V6.01196C32.0596 5.87828 32.0344 5.7456 31.9839 5.62183C31.9333 5.49805 31.8585 5.38585 31.7638 5.2915C31.6691 5.19715 31.5564 5.12256 31.4324 5.07251C31.3084 5.02246 31.1757 4.99785 31.042 5Z" fill="#DC3D3D"/>
<path fill-rule="evenodd" clip-rule="evenodd" d="M2 1.02417C1.73478 1.02417 1.48043 1.12936 1.29289 1.31689C1.10536 1.50443 1 1.75895 1 2.02417L1 34.0242C1 34.2894 1.10536 34.5437 1.29289 34.7312C1.48043 34.9187 1.73478 35.0242 2 35.0242H11.16L11.1434 35.1384C11.1019 35.4212 11.06 35.7074 11.06 36C11.06 39.856 14.204 43 18.06 43C21.912 43 25.06 39.856 25.06 36C25.06 35.7313 25.022 35.4693 24.9842 35.2085C24.9753 35.147 24.9664 35.0856 24.958 35.0242H42C42.0673 35.0229 42.1343 35.0147 42.2 35H44.16L44.1499 35.0689C44.105 35.376 44.06 35.6837 44.06 36C44.06 39.854 47.204 43 51.06 43C54.912 43 58.06 39.854 58.06 36C58.06 35.7104 58.0194 35.4281 57.9789 35.1468L57.9672 35.0652L57.958 35H64C64.2652 35 64.5196 34.8948 64.7071 34.7073C64.8946 34.5197 65 34.2652 65 34V28.074C65.0022 28.0507 65.0035 28.0275 65.004 28.0042V23.9919C65.0043 23.9586 65.003 23.9253 65 23.8921V17.998C65.0008 17.7555 64.9133 17.521 64.754 17.3381C64.7173 17.282 64.6751 17.2298 64.628 17.1821L54.266 5.34204C54.1718 5.23487 54.0559 5.14897 53.9258 5.09033C53.7957 5.03169 53.6547 5.00156 53.512 5.00195H43V2.02417C43 1.75895 42.8946 1.50443 42.7071 1.31689C42.5196 1.12936 42.2652 1.02417 42 1.02417H2ZM3 3.02417H41V25H3V3.02417ZM43 7H53.06L61.812 16.998H43V7ZM43.06 18.998H63V22.9941H60.054C59.7888 22.9941 59.5344 23.0993 59.3469 23.2869C59.1594 23.4744 59.054 23.7289 59.054 23.9941V28.0042C59.054 28.2694 59.1594 28.5236 59.3469 28.7112C59.5344 28.8987 59.7888 29.0042 60.054 29.0042H63V33H57.356C56.7906 31.8069 55.8992 30.7982 54.7847 30.0903C53.6702 29.3825 52.3782 29.0045 51.058 29C49.7381 29.0049 48.4465 29.3833 47.3324 30.0911C46.2184 30.7989 45.3272 31.8072 44.762 33H43.058V18.998H43.06ZM45.94 22.002C45.6748 22.0155 45.4258 22.134 45.2478 22.3311C45.0699 22.5282 44.9775 22.7878 44.991 23.053C45.0045 23.3182 45.1229 23.5671 45.32 23.7451C45.5171 23.9231 45.7768 24.0155 46.042 24.002H48.074C48.3392 24.002 48.5936 23.8968 48.7811 23.7092C48.9686 23.5217 49.074 23.2672 49.074 23.002C49.074 22.7367 48.9686 22.4825 48.7811 22.2949C48.5936 22.1074 48.3392 22.002 48.074 22.002H46.042C46.0087 22.0003 45.9753 22.0003 45.942 22.002H45.94ZM61.054 24.9941H63V27.0042H61.054V24.9941ZM3 27H41V33.022H24.372C23.8085 31.8223 22.916 30.8073 21.7982 30.095C20.6805 29.3826 19.3834 29.0022 18.058 28.998C16.7329 29.0026 15.4363 29.3831 14.3189 30.0955C13.2016 30.8078 12.3094 31.8226 11.746 33.022H3V30.998H6.042C6.30722 30.998 6.56157 30.8926 6.74911 30.7051C6.93664 30.5175 7.042 30.2633 7.042 29.998C7.042 29.7328 6.93664 29.4786 6.74911 29.291C6.56157 29.1035 6.30722 28.998 6.042 28.998H3V27ZM18.06 31C20.832 31 23.06 33.226 23.06 36C23.06 38.772 20.832 41 18.06 41C17.4028 41.0021 16.7517 40.8743 16.1441 40.6238C15.5365 40.3733 14.9845 40.005 14.5198 39.5403C14.055 39.0756 13.6868 38.5236 13.4363 37.916C13.1858 37.3084 13.0579 36.6572 13.06 36C13.06 33.226 15.286 31 18.06 31ZM51.06 31C53.832 31 56.06 33.226 56.06 36C56.06 38.772 53.832 41 51.06 41C50.4028 41.0021 49.7517 40.8743 49.1441 40.6238C48.5365 40.3733 47.9845 40.005 47.5198 39.5403C47.055 39.0756 46.6868 38.5236 46.4363 37.916C46.1858 37.3084 46.0579 36.6572 46.06 36C46.06 33.226 48.286 31 51.06 31ZM18.06 33C16.414 33 15.06 34.354 15.06 36C15.06 37.644 16.414 39 18.06 39C19.704 39 21.06 37.644 21.06 36C21.06 34.354 19.704 33 18.06 33ZM51.06 33C49.414 33 48.06 34.354 48.06 36C48.06 37.644 49.414 39 51.06 39C52.704 39 54.06 37.644 54.06 36C54.06 34.354 52.704 33 51.06 33ZM18.06 35C18.622 35 19.06 35.434 19.06 36C19.06 36.564 18.622 37 18.06 37C17.9282 37.0019 17.7973 36.9773 17.6751 36.9277C17.5529 36.8781 17.4419 36.8047 17.3487 36.7114C17.2555 36.6182 17.1819 36.5072 17.1323 36.385C17.0827 36.2628 17.0581 36.1318 17.06 36C17.06 35.434 17.494 35 18.06 35ZM51.06 35C51.622 35 52.06 35.434 52.06 36C52.06 36.564 51.622 37 51.06 37C50.9282 37.0019 50.7973 36.9773 50.6751 36.9277C50.5529 36.8781 50.4419 36.8047 50.3487 36.7114C50.2555 36.6182 50.1819 36.5072 50.1323 36.385C50.0827 36.2628 50.0581 36.1318 50.06 36C50.06 35.434 50.494 35 51.06 35Z" fill="#00489A"/>
<path d="M37.042 5C36.7775 5.00421 36.5254 5.11306 36.341 5.30273C36.1565 5.49241 36.0548 5.74742 36.058 6.01196V22C36.058 22.2652 36.1634 22.5197 36.3509 22.7073C36.5384 22.8948 36.7928 23 37.058 23C37.3232 23 37.5776 22.8948 37.7651 22.7073C37.9526 22.5197 38.058 22.2652 38.058 22V6.01196C38.0596 5.87828 38.0344 5.7456 37.9839 5.62183C37.9333 5.49805 37.8585 5.38585 37.7638 5.2915C37.6691 5.19715 37.5564 5.12256 37.4324 5.07251C37.3084 5.02246 37.1757 4.99785 37.042 5Z" fill="#DC3D3D"/>
<path d="M11.16 35.0242H2C1.73478 35.0242 1.48043 34.9187 1.29289 34.7312C1.10536 34.5437 1 34.2894 1 34.0242L1 2.02417C1 1.75895 1.10536 1.50443 1.29289 1.31689C1.48043 1.12936 1.73478 1.02417 2 1.02417H42C42.2652 1.02417 42.5196 1.12936 42.7071 1.31689C42.8946 1.50443 43 1.75895 43 2.02417V5.00195H53.512C53.6547 5.00156 53.7958 5.03169 53.9258 5.09033C54.0558 5.14897 54.1718 5.23487 54.266 5.34204L64.628 17.1821C64.6751 17.2298 64.7173 17.282 64.754 17.3381C64.9133 17.521 65.0008 17.7555 65 17.998V23.8921C65.003 23.9253 65.0043 23.9586 65.004 23.9919V28.0042C65.0035 28.0275 65.0022 28.0507 65 28.074V34C65 34.2652 64.8946 34.5197 64.7071 34.7073C64.5196 34.8948 64.2652 35 64 35H57.958M11.16 35.0242C11.1545 35.0622 11.149 35.1002 11.1434 35.1384M11.16 35.0242L11.1434 35.1384M44.16 35H42.2C42.1343 35.0147 42.0673 35.0229 42 35.0242H24.958C24.9664 35.0856 24.9753 35.147 24.9842 35.2085C25.022 35.4693 25.06 35.7313 25.06 36C25.06 39.856 21.912 43 18.06 43C14.204 43 11.06 39.856 11.06 36C11.06 35.7074 11.1019 35.4212 11.1434 35.1384M44.16 35C44.1567 35.023 44.1533 35.0459 44.1499 35.0689M44.16 35L44.1499 35.0689M57.958 35C57.961 35.0217 57.9641 35.0434 57.9672 35.0652M57.958 35L57.9672 35.0652M57.9789 35.1468C58.0194 35.4281 58.06 35.7104 58.06 36C58.06 39.854 54.912 43 51.06 43C47.204 43 44.06 39.854 44.06 36C44.06 35.6837 44.105 35.376 44.1499 35.0689M57.9789 35.1468C57.975 35.1196 57.9711 35.0924 57.9672 35.0652M57.9789 35.1468L57.9672 35.0652M3 3.02417H41V25H3V3.02417ZM7.042 5C6.77748 5.00421 6.5254 5.11306 6.34097 5.30273C6.15654 5.49241 6.05479 5.74742 6.058 6.01196V22C6.058 22.2652 6.16336 22.5197 6.35089 22.7073C6.53843 22.8948 6.79278 23 7.058 23C7.32322 23 7.57757 22.8948 7.76511 22.7073C7.95264 22.5197 8.058 22.2652 8.058 22V6.01196C8.05962 5.87828 8.03442 5.7456 7.98388 5.62183C7.93335 5.49805 7.85851 5.38585 7.76378 5.2915C7.66906 5.19715 7.55638 5.12256 7.4324 5.07251C7.30843 5.02246 7.17568 4.99785 7.042 5ZM13.042 5C12.7775 5.00421 12.5254 5.11306 12.341 5.30273C12.1565 5.49241 12.0548 5.74742 12.058 6.01196V22C12.058 22.2652 12.1634 22.5197 12.3509 22.7073C12.5384 22.8948 12.7928 23 13.058 23C13.3232 23 13.5776 22.8948 13.7651 22.7073C13.9526 22.5197 14.058 22.2652 14.058 22V6.01196C14.0596 5.87828 14.0344 5.7456 13.9839 5.62183C13.9333 5.49805 13.8585 5.38585 13.7638 5.2915C13.6691 5.19715 13.5564 5.12256 13.4324 5.07251C13.3084 5.02246 13.1757 4.99785 13.042 5ZM19.042 5C18.7775 5.00421 18.5254 5.11306 18.341 5.30273C18.1565 5.49241 18.0548 5.74742 18.058 6.01196V22C18.058 22.2652 18.1634 22.5197 18.3509 22.7073C18.5384 22.8948 18.7928 23 19.058 23C19.3232 23 19.5776 22.8948 19.7651 22.7073C19.9526 22.5197 20.058 22.2652 20.058 22V6.01196C20.0596 5.87828 20.0344 5.7456 19.9839 5.62183C19.9333 5.49805 19.8585 5.38585 19.7638 5.2915C19.6691 5.19715 19.5564 5.12256 19.4324 5.07251C19.3084 5.02246 19.1757 4.99785 19.042 5ZM25.042 5C24.7775 5.00421 24.5254 5.11306 24.341 5.30273C24.1565 5.49241 24.0548 5.74742 24.058 6.01196V22C24.058 22.2652 24.1634 22.5197 24.3509 22.7073C24.5384 22.8948 24.7928 23 25.058 23C25.3232 23 25.5776 22.8948 25.7651 22.7073C25.9526 22.5197 26.058 22.2652 26.058 22V6.01196C26.0596 5.87828 26.0344 5.7456 25.9839 5.62183C25.9333 5.49805 25.8585 5.38585 25.7638 5.2915C25.6691 5.19715 25.5564 5.12256 25.4324 5.07251C25.3084 5.02246 25.1757 4.99785 25.042 5ZM31.042 5C30.7775 5.00421 30.5254 5.11306 30.341 5.30273C30.1565 5.49241 30.0548 5.74742 30.058 6.01196V22C30.058 22.2652 30.1634 22.5197 30.3509 22.7073C30.5384 22.8948 30.7928 23 31.058 23C31.3232 23 31.5776 22.8948 31.7651 22.7073C31.9526 22.5197 32.058 22.2652 32.058 22V6.01196C32.0596 5.87828 32.0344 5.7456 31.9839 5.62183C31.9333 5.49805 31.8585 5.38585 31.7638 5.2915C31.6691 5.19715 31.5564 5.12256 31.4324 5.07251C31.3084 5.02246 31.1757 4.99785 31.042 5ZM37.042 5C36.7775 5.00421 36.5254 5.11306 36.341 5.30273C36.1565 5.49241 36.0548 5.74742 36.058 6.01196V22C36.058 22.2652 36.1634 22.5197 36.3509 22.7073C36.5384 22.8948 36.7928 23 37.058 23C37.3232 23 37.5776 22.8948 37.7651 22.7073C37.9526 22.5197 38.058 22.2652 38.058 22V6.01196C38.0596 5.87828 38.0344 5.7456 37.9839 5.62183C37.9333 5.49805 37.8585 5.38585 37.7638 5.2915C37.6691 5.19715 37.5564 5.12256 37.4324 5.07251C37.3084 5.02246 37.1757 4.99785 37.042 5ZM43 7H53.06L61.812 16.998H43V7ZM43.06 18.998H63V22.9941H60.054C59.7888 22.9941 59.5344 23.0993 59.3469 23.2869C59.1594 23.4744 59.054 23.7289 59.054 23.9941V28.0042C59.054 28.2694 59.1594 28.5236 59.3469 28.7112C59.5344 28.8987 59.7888 29.0042 60.054 29.0042H63V33H57.356C56.7906 31.8069 55.8992 30.7982 54.7847 30.0903C53.6702 29.3825 52.3782 29.0045 51.058 29C49.7381 29.0049 48.4465 29.3833 47.3324 30.0911C46.2184 30.7989 45.3272 31.8072 44.762 33H43.058V18.998H43.06ZM45.94 22.002C45.6748 22.0155 45.4258 22.134 45.2478 22.3311C45.0699 22.5282 44.9775 22.7878 44.991 23.053C45.0045 23.3182 45.1229 23.5671 45.32 23.7451C45.5171 23.9231 45.7768 24.0155 46.042 24.002H48.074C48.3392 24.002 48.5936 23.8968 48.7811 23.7092C48.9686 23.5217 49.074 23.2672 49.074 23.002C49.074 22.7367 48.9686 22.4825 48.7811 22.2949C48.5936 22.1074 48.3392 22.002 48.074 22.002H46.042C46.0087 22.0003 45.9753 22.0003 45.942 22.002H45.94ZM61.054 24.9941H63V27.0042H61.054V24.9941ZM3 27H41V33.022H24.372C23.8085 31.8223 22.916 30.8073 21.7982 30.095C20.6805 29.3826 19.3834 29.0022 18.058 28.998C16.7329 29.0026 15.4363 29.3831 14.3189 30.0955C13.2016 30.8078 12.3094 31.8226 11.746 33.022H3V30.998H6.042C6.30722 30.998 6.56157 30.8926 6.74911 30.7051C6.93664 30.5175 7.042 30.2633 7.042 29.998C7.042 29.7328 6.93664 29.4786 6.74911 29.291C6.56157 29.1035 6.30722 28.998 6.042 28.998H3V27ZM18.06 31C20.832 31 23.06 33.226 23.06 36C23.06 38.772 20.832 41 18.06 41C17.4028 41.0021 16.7517 40.8743 16.1441 40.6238C15.5365 40.3733 14.9845 40.005 14.5198 39.5403C14.055 39.0756 13.6868 38.5236 13.4363 37.916C13.1858 37.3084 13.0579 36.6572 13.06 36C13.06 33.226 15.286 31 18.06 31ZM51.06 31C53.832 31 56.06 33.226 56.06 36C56.06 38.772 53.832 41 51.06 41C50.4028 41.0021 49.7517 40.8743 49.1441 40.6238C48.5365 40.3733 47.9845 40.005 47.5198 39.5403C47.055 39.0756 46.6868 38.5236 46.4363 37.916C46.1858 37.3084 46.0579 36.6572 46.06 36C46.06 33.226 48.286 31 51.06 31ZM18.06 33C16.414 33 15.06 34.354 15.06 36C15.06 37.644 16.414 39 18.06 39C19.704 39 21.06 37.644 21.06 36C21.06 34.354 19.704 33 18.06 33ZM51.06 33C49.414 33 48.06 34.354 48.06 36C48.06 37.644 49.414 39 51.06 39C52.704 39 54.06 37.644 54.06 36C54.06 34.354 52.704 33 51.06 33ZM18.06 35C18.622 35 19.06 35.434 19.06 36C19.06 36.564 18.622 37 18.06 37C17.9282 37.0019 17.7973 36.9773 17.6751 36.9277C17.5529 36.8781 17.4419 36.8047 17.3487 36.7114C17.2555 36.6182 17.1819 36.5072 17.1323 36.385C17.0827 36.2628 17.0581 36.1318 17.06 36C17.06 35.434 17.494 35 18.06 35ZM51.06 35C51.622 35 52.06 35.434 52.06 36C52.06 36.564 51.622 37 51.06 37C50.9282 37.0019 50.7973 36.9773 50.6751 36.9277C50.5529 36.8781 50.4419 36.8047 50.3487 36.7114C50.2555 36.6182 50.1819 36.5072 50.1323 36.385C50.0827 36.2628 50.0581 36.1318 50.06 36C50.06 35.434 50.494 35 51.06 35Z" stroke="white"/>
</svg>
