<svg width="66" height="41" viewBox="0 0 66 41" fill="none" xmlns="http://www.w3.org/2000/svg">
<path d="M59.3399 31.4784C59.3399 33.2893 57.8718 34.7575 56.0607 34.7575C54.2497 34.7575 52.7815 33.2893 52.7815 31.4784C52.7815 29.6674 54.2497 28.1992 56.0607 28.1992C57.8718 28.1992 59.3399 29.6674 59.3399 31.4784Z" fill="#DC3D3D" fill-opacity="0.22"/>
<path d="M59.3901 23.7271C62.078 24.9672 63.5226 27.1912 63.9087 28.1481C65.748 32.4828 63.7249 37.4877 59.3901 39.3268C55.0554 41.1659 50.0506 39.143 48.2114 34.8082C47.9304 34.2916 47.5049 33.0282 47.5049 30.7029" stroke="#00489A" stroke-width="1.14474"/>
<path d="M56.0602 35.3534C58.2006 35.3534 59.9356 33.6183 59.9356 31.478C59.9356 29.3376 58.2006 27.6025 56.0602 27.6025C53.9199 27.6025 52.1848 29.3376 52.1848 31.478C52.1848 33.6183 53.9199 35.3534 56.0602 35.3534Z" stroke="#00489A" stroke-width="1.14474"/>
<path d="M53.7055 26.0523L56.0602 31.4779M52.1851 18.3015C57.1456 18.3015 60.4526 21.9185 61.4861 23.7271C52.1852 23.7271 47.2762 30.4444 45.9844 33.8032C44.1242 26.3624 49.343 20.3683 52.1851 18.3015Z" stroke="#00489A" stroke-width="1.14474" stroke-linecap="round" stroke-linejoin="round"/>
<path d="M22.7317 31.478C22.7317 36.1868 18.9146 40.0039 14.2058 40.0039C9.49721 40.0039 5.67993 36.1868 5.67993 31.478" stroke="#00489A" stroke-width="1.14474"/>
<path d="M18.0813 31.478C18.0813 33.6183 16.3463 35.3534 14.2059 35.3534C12.0655 35.3534 10.3304 33.6183 10.3304 31.478" stroke="#00489A" stroke-width="1.14474"/>
<path d="M45.9845 7.45044C48.4647 9.9307 51.1516 15.7179 52.1851 18.3016C46.6047 22.6421 45.2092 29.4112 45.2091 32.2531H1.03C0.409934 18.6116 9.5559 14.6846 14.2064 14.4262H32.8081C27.8475 23.7272 31.7746 27.6026 34.3582 28.3777H42.8841C47.2246 24.0372 43.6592 12.6176 41.334 7.45044H45.9845Z" stroke="#DC3D3D" stroke-width="1.14474" stroke-linecap="round" stroke-linejoin="round"/>
<path d="M1.02942 32.253C1.62174 29.8838 3.30041 25.6134 5.9963 23.4545C7.60754 22.1641 9.81637 22.177 11.8806 22.177M17.3061 22.177C22.4431 22.177 26.6071 26.3412 26.6071 31.478V32.253M41.3337 1.24976H36.6832M42.1088 2.79992H49.0845V5.90025M27.3822 9.00058H13.4307C13.4307 11.997 15.8598 14.4262 18.8563 14.4262H32.8078C32.8078 11.4297 30.3787 9.00058 27.3822 9.00058Z" stroke="#00489A" stroke-width="1.14474" stroke-linecap="round" stroke-linejoin="round"/>
<path d="M43.2714 7.45041H49.0845V4.35008M41.3337 1.24976L43.659 7.45041M41.3337 7.45041H36.6832" stroke="#00489A" stroke-width="1.14474" stroke-linecap="round" stroke-linejoin="round"/>
</svg>
