<svg width="50" height="38" viewBox="0 0 50 38" fill="none" xmlns="http://www.w3.org/2000/svg">
<path d="M38.1134 29.2446C37.8676 29.2446 37.6596 29.0555 37.6407 28.8097L35.7498 5.17333C35.7498 5.16387 35.7498 5.14496 35.7498 5.13551V2.29914C35.7498 2.03442 35.9578 1.82642 36.2225 1.82642H36.3454C36.4116 1.82642 36.4683 1.83587 36.525 1.86423C39.2668 3.00823 41.7912 6.16605 43.3039 10.3261C44.5236 13.7013 45.6298 19.2322 43.9563 26.3893C43.8996 26.6446 43.6443 26.8053 43.389 26.7391C43.1338 26.6824 42.973 26.4271 43.0392 26.1719C44.6654 19.2417 43.597 13.8999 42.4247 10.6381C41.1105 7.00751 39.0021 4.19951 36.7141 2.97987V5.10714L38.605 28.7246C38.6239 28.9893 38.4348 29.2162 38.1701 29.2351C38.1418 29.2446 38.1323 29.2446 38.1134 29.2446Z" fill="#1953A0"/>
<path d="M37.8203 34.1231C37.6218 34.1231 37.4327 33.9908 37.3665 33.7922C36.8749 32.2228 37.0167 30.5588 37.7731 29.1028C38.5294 27.6468 39.8058 26.569 41.3752 26.0773C42.9447 25.5857 44.6087 25.7275 46.0647 26.4839C47.5207 27.2402 48.5985 28.5166 49.0902 30.0861C49.128 30.209 49.1185 30.3319 49.0618 30.4453C49.0051 30.5588 48.9011 30.6439 48.7876 30.6817L37.9716 34.0948C37.9149 34.1231 37.8676 34.1231 37.8203 34.1231ZM43.2283 26.7486C42.7083 26.7486 42.1883 26.8242 41.6683 26.9944C40.3447 27.4104 39.2574 28.3181 38.624 29.5566C38.0567 30.6439 37.896 31.873 38.1607 33.0642L48.0407 29.9442C47.1992 27.9777 45.28 26.7486 43.2283 26.7486Z" fill="#1953A0"/>
<path d="M44.2589 21.6619C44.24 21.6619 44.2306 21.6619 44.2116 21.6619C39.3709 21.1798 36.9695 16.8874 36.8749 16.7078C36.752 16.4809 36.8371 16.1878 37.064 16.0649C37.2909 15.9419 37.584 16.027 37.7069 16.2539C37.7258 16.2918 39.976 20.291 44.3062 20.7259C44.5615 20.7543 44.76 20.9812 44.7316 21.2459C44.7033 21.4823 44.5047 21.6619 44.2589 21.6619Z" fill="#1953A0"/>
<path d="M4.19996 32.0809H3.88796C2.23341 32.0809 0.890869 30.7383 0.890869 29.0838V7.73542C0.890869 5.67433 1.71341 3.76451 3.20723 2.34633C4.70105 0.92815 6.65814 0.209604 8.70978 0.313604L36.2509 1.82633C36.4967 1.83579 36.6952 2.04379 36.6952 2.29906V5.13542C36.6952 5.26779 36.6385 5.3907 36.5534 5.47579C36.4589 5.56088 36.336 5.60815 36.2036 5.60815L20.4996 4.96524C18.5803 4.89906 16.7367 5.67433 15.4509 7.10197C14.165 8.5296 13.5694 10.4394 13.8341 12.3398L16.037 28.2991H23.109V19.0809C23.109 17.9085 24.064 16.9536 25.2363 16.9536C26.4087 16.9536 27.3636 17.9085 27.3636 19.0809V28.2991H38.5294C38.7941 28.2991 39.0021 28.5071 39.0021 28.7718C39.0021 29.0365 38.7941 29.2445 38.5294 29.2445H26.8909C26.6261 29.2445 26.4181 29.0365 26.4181 28.7718V19.0809C26.4181 18.4285 25.8887 17.8991 25.2363 17.8991C24.584 17.8991 24.0545 18.4285 24.0545 19.0809V28.7718C24.0545 29.0365 23.8465 29.2445 23.5818 29.2445H15.6305C15.3941 29.2445 15.1956 29.0743 15.1578 28.838L12.8981 12.4627C12.5956 10.2787 13.2763 8.0947 14.7512 6.45906C16.2261 4.82342 18.3345 3.9347 20.5374 4.01979L35.7498 4.64379V2.74342L8.6625 1.2496C6.86614 1.15506 5.16432 1.78851 3.8596 3.02706C2.55487 4.2656 1.83632 5.93906 1.83632 7.73542V29.0838C1.83632 30.2183 2.75341 31.1354 3.88796 31.1354H4.19996C4.46469 31.1354 4.67269 31.3434 4.67269 31.6082C4.67269 31.8634 4.46469 32.0809 4.19996 32.0809Z" fill="#DC3D3D"/>
<path d="M37.565 32.081H13.6545C13.3898 32.081 13.1818 31.873 13.1818 31.6082C13.1818 31.3435 13.3898 31.1355 13.6545 31.1355H37.565C37.8298 31.1355 38.0378 31.3435 38.0378 31.6082C38.0378 31.8635 37.8203 32.081 37.565 32.081Z" fill="#1953A0"/>
<path d="M32.5635 29.2446H26.8908C26.6261 29.2446 26.4181 29.0366 26.4181 28.7719V24.9901C26.4181 24.7253 26.6261 24.5173 26.8908 24.5173H32.5635C32.8283 24.5173 33.0363 24.7253 33.0363 24.9901V28.7719C33.0363 29.0272 32.8283 29.2446 32.5635 29.2446ZM27.3635 28.2992H32.0908V25.4628H27.3635V28.2992Z" fill="#1953A0"/>
<path d="M8.92717 36.8082C6.06245 36.8082 3.72717 34.4729 3.72717 31.6082C3.72717 28.7435 6.06245 26.4082 8.92717 26.4082C11.7919 26.4082 14.1272 28.7435 14.1272 31.6082C14.1272 34.4729 11.7919 36.8082 8.92717 36.8082ZM8.92717 27.3537C6.58245 27.3537 4.67263 29.2635 4.67263 31.6082C4.67263 33.9529 6.58245 35.8627 8.92717 35.8627C11.2719 35.8627 13.1817 33.9529 13.1817 31.6082C13.1817 29.2635 11.2719 27.3537 8.92717 27.3537Z" fill="#1953A0"/>
<path d="M8.92725 34.9173C7.10253 34.9173 5.61816 33.4329 5.61816 31.6082C5.61816 29.7834 7.10253 28.2991 8.92725 28.2991C10.752 28.2991 12.2363 29.7834 12.2363 31.6082C12.2363 33.4329 10.752 34.9173 8.92725 34.9173ZM8.92725 29.2445C7.62253 29.2445 6.56362 30.3034 6.56362 31.6082C6.56362 32.9129 7.62253 33.9718 8.92725 33.9718C10.232 33.9718 11.2909 32.9129 11.2909 31.6082C11.2909 30.3034 10.232 29.2445 8.92725 29.2445Z" fill="#1953A0"/>
<path d="M43.4364 37.7536C40.8931 37.7536 38.7375 35.9383 38.312 33.4329C38.2647 33.1776 38.4444 32.9318 38.6996 32.8845C38.9549 32.8372 39.2007 33.0169 39.248 33.2721C39.5978 35.3238 41.3564 36.8081 43.4458 36.8081C45.7906 36.8081 47.7004 34.8983 47.7004 32.5536C47.7004 31.9201 47.568 31.3056 47.2938 30.7383C47.1804 30.502 47.2844 30.2183 47.5207 30.1049C47.7571 29.9914 48.0407 30.0954 48.1542 30.3318C48.4851 31.0314 48.6553 31.7783 48.6553 32.5536C48.6364 35.4183 46.3011 37.7536 43.4364 37.7536Z" fill="#1953A0"/>
<path d="M43.4363 35.8626C41.7156 35.8626 40.269 34.5201 40.1367 32.8088C40.1178 32.5441 40.3069 32.3172 40.5716 32.2982C40.8363 32.2793 41.0632 32.4684 41.0821 32.7332C41.1767 33.9528 42.2072 34.9077 43.4363 34.9077C44.741 34.9077 45.8 33.8488 45.8 32.5441C45.8 32.1186 45.6865 31.7026 45.469 31.3433C45.3367 31.1164 45.4123 30.8328 45.6298 30.691C45.8567 30.5586 46.1403 30.6342 46.2821 30.8517C46.5847 31.3622 46.7454 31.939 46.7454 32.5346C46.7454 34.3782 45.261 35.8626 43.4363 35.8626Z" fill="#1953A0"/>
<path d="M38.1229 29.2446H35.4C35.1352 29.2446 34.9272 29.0366 34.9272 28.7718V18.8446C34.9272 18.5798 35.1352 18.3718 35.4 18.3718H37.3287C37.5934 18.3718 37.8014 18.5798 37.8014 18.8446C37.8014 19.1093 37.5934 19.3173 37.3287 19.3173H35.8727V28.2991H38.1229C38.3876 28.2991 38.5956 28.5071 38.5956 28.7718C38.5956 29.0271 38.3782 29.2446 38.1229 29.2446Z" fill="#1953A0"/>
<path d="M35.4 19.3172C35.2015 19.3172 35.0218 19.1943 34.9556 18.9958L34.5869 17.8991H31.1455C30.8807 17.8991 30.6727 17.6911 30.6727 17.4263C30.6727 17.1616 30.8807 16.9536 31.1455 16.9536H34.9273C35.1353 16.9536 35.3149 17.086 35.3716 17.2751L35.8444 18.6932C35.9295 18.9391 35.7971 19.2132 35.5418 19.2889C35.504 19.3078 35.4473 19.3172 35.4 19.3172Z" fill="#1953A0"/>
<path d="M14.392 20.2626H1.3636C1.09887 20.2626 0.890869 20.0546 0.890869 19.7899C0.890869 19.5251 1.09887 19.3171 1.3636 19.3171H14.392C14.6567 19.3171 14.8647 19.5251 14.8647 19.7899C14.8647 20.0451 14.6472 20.2626 14.392 20.2626Z" fill="#1953A0"/>
</svg>
