<svg width="65" height="34" viewBox="0 0 65 34" fill="none" xmlns="http://www.w3.org/2000/svg">
<path d="M1.05 13.95V13.05H36.95V13.95H1.05Z" fill="#1953A0" stroke="white" stroke-width="0.1"/>
<path d="M1.42222 7.27857H1.27222V7.42857V10.85H0.15V6.15H31.85V7.27857H1.42222Z" fill="#1953A0" stroke="white" stroke-width="0.3"/>
<path d="M51.0039 28.5557C50.7596 28.5557 50.5268 28.3928 50.4454 28.1484C49.8403 26.2168 50.0148 24.1688 50.9458 22.3768C51.8767 20.5848 53.4476 19.2582 55.3792 18.6532C57.3108 18.0481 59.3588 18.2226 61.1508 19.1535C62.9428 20.0844 64.2694 21.6553 64.8745 23.587C64.921 23.7382 64.9094 23.8895 64.8396 24.0291C64.7698 24.1688 64.6417 24.2735 64.5021 24.3201L51.1901 28.5208C51.1203 28.5557 51.0621 28.5557 51.0039 28.5557ZM57.6599 19.4793C57.0199 19.4793 56.3799 19.5724 55.7399 19.7819C54.1108 20.2939 52.7727 21.411 51.993 22.9353C51.2948 24.2735 51.097 25.7862 51.4228 27.2524L63.5828 23.4124C62.5472 20.9921 60.185 19.4793 57.6599 19.4793Z" fill="#1953A0"/>
<path d="M50.6899 26.0423H21.2615C20.9357 26.0423 20.6797 25.7863 20.6797 25.4605C20.6797 25.1347 20.9357 24.8787 21.2615 24.8787H50.6899C51.0157 24.8787 51.2717 25.1347 51.2717 25.4605C51.2717 25.7747 51.0041 26.0423 50.6899 26.0423Z" fill="#1953A0"/>
<path d="M15.4433 31.8605C11.9175 31.8605 9.04333 28.9864 9.04333 25.4605C9.04333 21.9347 11.9175 19.0605 15.4433 19.0605C18.9692 19.0605 21.8433 21.9347 21.8433 25.4605C21.8433 28.9864 18.9692 31.8605 15.4433 31.8605ZM15.4433 20.2242C12.5575 20.2242 10.207 22.5747 10.207 25.4605C10.207 28.3464 12.5575 30.6969 15.4433 30.6969C18.3292 30.6969 20.6797 28.3464 20.6797 25.4605C20.6797 22.5747 18.3292 20.2242 15.4433 20.2242Z" fill="#1953A0"/>
<path d="M15.4432 29.5331C13.1974 29.5331 11.3705 27.7062 11.3705 25.4604C11.3705 23.2146 13.1974 21.3877 15.4432 21.3877C17.689 21.3877 19.5159 23.2146 19.5159 25.4604C19.5159 27.7062 17.689 29.5331 15.4432 29.5331ZM15.4432 22.5513C13.8374 22.5513 12.5341 23.8546 12.5341 25.4604C12.5341 27.0662 13.8374 28.3695 15.4432 28.3695C17.049 28.3695 18.3523 27.0662 18.3523 25.4604C18.3523 23.8546 17.049 22.5513 15.4432 22.5513Z" fill="#1953A0"/>
<path d="M57.9161 33.0244C54.7859 33.0244 52.1328 30.7902 51.6092 27.7066C51.551 27.3924 51.7721 27.0899 52.0863 27.0317C52.4004 26.9735 52.703 27.1946 52.7612 27.5088C53.1917 30.0339 55.3561 31.8608 57.9277 31.8608C60.8135 31.8608 63.1641 29.5102 63.1641 26.6244C63.1641 25.8448 63.0012 25.0884 62.6637 24.3902C62.5241 24.0993 62.6521 23.7502 62.943 23.6106C63.2339 23.471 63.583 23.599 63.7226 23.8899C64.1299 24.751 64.3394 25.6702 64.3394 26.6244C64.3161 30.1502 61.4419 33.0244 57.9161 33.0244Z" fill="#1953A0"/>
<path d="M57.9161 30.6969C55.7983 30.6969 54.0179 29.0445 53.855 26.9384C53.8317 26.6125 54.0645 26.3333 54.3903 26.31C54.7161 26.2867 54.9954 26.5195 55.0186 26.8453C55.135 28.3464 56.4034 29.5216 57.9161 29.5216C59.5219 29.5216 60.8252 28.2184 60.8252 26.6125C60.8252 26.0889 60.6855 25.5769 60.4179 25.1347C60.255 24.8555 60.3481 24.5064 60.6157 24.3318C60.895 24.1689 61.2441 24.262 61.4186 24.5296C61.791 25.158 61.9888 25.8678 61.9888 26.6009C61.9888 28.87 60.1619 30.6969 57.9161 30.6969Z" fill="#1953A0"/>
<path d="M47.1973 10.4201C46.953 10.4201 46.7319 10.2688 46.6504 10.0244L46.1966 8.67462H41.961C41.6352 8.67462 41.3792 8.41862 41.3792 8.0928C41.3792 7.76699 41.6352 7.51099 41.961 7.51099H46.6155C46.8715 7.51099 47.0926 7.67389 47.1624 7.90662L47.7442 9.65208C47.849 9.95462 47.6861 10.2921 47.3719 10.3852C47.3253 10.4084 47.2555 10.4201 47.1973 10.4201Z" fill="#1953A0"/>
<path fill-rule="evenodd" clip-rule="evenodd" d="M46.9174 9.44385H51.1637L52.524 22.3669H46.9174V9.44385ZM48.1481 10.6746V21.1362H51.1569L50.0557 10.6746H48.1481Z" fill="#1953A0"/>
<path d="M36.58 1.66751V1.56751H36.48H32.5414H32.4414V1.66751V10.1041H1.41484H1.31484V10.2041V24.2285V24.3285H1.41484H9.02V25.348H0.1V9.08458H31.1265H31.2265V8.98458V0.547998H37.9V13.4H36.58V1.66751Z" fill="#DC3D3D" stroke="white" stroke-width="0.2"/>
<rect x="36.4" y="13.4" width="9.2" height="9.2" rx="0.830769" stroke="#DC3D3D" stroke-width="0.8"/>
</svg>
