<svg width="66" height="25" viewBox="0 0 66 25" fill="none" xmlns="http://www.w3.org/2000/svg">
<path d="M0.0941772 14.6999C0.0941772 14.6929 0.0920944 14.6867 0.0920944 14.6793C0.0927048 14.6346 0.0989609 14.5901 0.110718 14.5471C0.278313 13.1061 0.621185 12.1385 1.03217 11.3862C1.04131 11.3665 1.05167 11.3475 1.06316 11.3292C1.26113 10.9804 1.48351 10.6465 1.7286 10.33C2.53233 9.27249 3.9994 8.70696 5.55282 8.10798C6.35883 7.81741 7.14605 7.47572 7.90984 7.08493C9.03534 6.47101 10.0736 5.86476 11.0777 5.27848C15.7267 2.56372 19.741 0.219246 27.8273 0.08097C28.3318 0.0723773 28.818 0.059952 29.2976 0.0477901C31.6574 -0.0115654 33.8861 -0.0682783 37.347 0.336503C42.3553 0.922126 48.0533 4.42609 51.411 7.24871C51.6954 7.48785 53.3491 8.22378 54.9483 8.93539C58.379 10.462 62.6486 12.3619 64.0098 13.7412C64.2543 13.9977 64.4588 14.2905 64.6164 14.6096C64.6282 14.6299 64.6386 14.6509 64.6475 14.6727C65.5218 16.4368 65.6315 19.241 65.6315 20.5239C65.6315 21.2828 64.6966 21.6109 63.8822 21.812C63.3246 21.952 62.7561 22.0429 62.1831 22.0836H57.5038C57.1095 22.9544 56.4774 23.692 55.6826 24.2091C54.8878 24.7262 53.9636 25.0011 53.0195 25.0011C52.0755 25.0011 51.1513 24.7262 50.3565 24.2091C49.5617 23.692 48.9296 22.9544 48.5353 22.0836H17.6317C17.2327 22.9651 16.5902 23.71 15.7822 24.2279C14.9742 24.7457 14.0354 25.0143 13.0799 25.0009C12.1244 24.9875 11.1933 24.6927 10.3997 24.1524C9.60608 23.6121 8.98408 22.8494 8.60926 21.9571C7.25716 21.8561 4.0442 21.583 2.09361 21.1476C1.01107 20.906 0.169708 19.9885 0.0932693 18.9663C-0.0394287 17.1953 -0.0228882 15.8115 0.0941772 14.6999ZM1.83915 12.0849C1.53026 12.7374 1.32152 13.4339 1.22021 14.1505H1.31136C2.27331 14.1505 3.59194 13.7355 3.85069 13.2005C4.02154 12.8468 3.94393 12.4182 3.76566 12.2992C3.22576 11.9381 2.3284 11.999 1.83928 12.0849H1.83915ZM63.7693 15.2538C63.1006 14.9413 61.394 14.7376 60.6289 15.0819C60.504 15.1381 60.442 15.1963 60.4361 15.2291C60.4029 15.3628 60.4025 15.5028 60.4349 15.6368C60.4673 15.7708 60.5315 15.8947 60.622 15.9976C61.218 16.6798 62.9813 16.8993 64.2716 16.8966C64.1666 16.3313 63.9981 15.7801 63.7693 15.2538ZM53.0209 23.9437C53.8493 23.9429 54.6557 23.6737 55.3229 23.1754C55.9901 22.677 56.4831 21.9754 56.7303 21.1728C56.9775 20.3703 56.9658 19.5085 56.6971 18.7131C56.4283 17.9177 55.9165 17.2302 55.2361 16.7505C54.5558 16.2709 53.7423 16.0243 52.9143 16.0465C52.0862 16.0687 51.2868 16.3587 50.6323 16.8741C49.9779 17.3896 49.5026 18.1037 49.2756 18.9124C49.0487 19.7211 49.0819 20.5822 49.3705 21.3704C49.6483 22.1257 50.1468 22.7769 50.7991 23.2368C51.4514 23.6967 52.2267 23.9433 53.0209 23.9437ZM13.1492 23.9437C13.9269 23.9428 14.6866 23.7057 15.3307 23.2631C15.9747 22.8204 16.4736 22.1924 16.7634 21.4597C16.7744 21.4002 16.7955 21.3431 16.8257 21.291C17.0973 20.4993 17.1139 19.6406 16.8731 18.8387C16.6324 18.0369 16.1467 17.3335 15.4864 16.8302C14.826 16.3269 14.0251 16.0498 13.1994 16.0388C12.3738 16.0279 11.566 16.2837 10.893 16.7694C10.2199 17.255 9.71634 17.9453 9.45507 18.7405C9.1938 19.5357 9.18834 20.3947 9.43948 21.1932C9.69061 21.9918 10.1853 22.6886 10.8522 23.183C11.519 23.6775 12.3234 23.9439 13.1492 23.9437ZM1.13257 18.8864C1.17437 19.4457 1.68393 19.9741 2.31758 20.1158C4.03651 20.4991 6.80659 20.7553 8.29099 20.873C8.16285 20.1453 8.19492 19.3979 8.3849 18.6842C8.57487 17.9706 8.91805 17.3085 9.38982 16.7454C9.86159 16.1823 10.4503 15.7321 11.1136 15.4272C11.777 15.1223 12.4986 14.9702 13.2267 14.9818C13.9548 14.9933 14.6713 15.1683 15.3249 15.4942C15.9786 15.82 16.5531 16.2887 17.0072 16.8665C17.4614 17.4443 17.784 18.117 17.9519 18.8363C18.1197 19.5556 18.1287 20.3037 17.9782 21.027H48.1915C48.04 20.2974 48.0509 19.5427 48.2233 18.8179C48.3957 18.0931 48.7253 17.4165 49.188 16.8375C49.6508 16.2584 50.235 15.7915 50.898 15.4708C51.5611 15.1501 52.2864 14.9837 53.0208 14.9837C53.7553 14.9837 54.4806 15.1501 55.1437 15.4708C55.8067 15.7915 56.3909 16.2584 56.8537 16.8375C57.3164 17.4165 57.646 18.0931 57.8184 18.8179C57.9908 19.5427 58.0016 20.2974 57.8502 21.027H62.1823C62.5869 21.0218 64.2341 20.7263 64.5896 20.4321C64.5893 19.6035 64.5399 18.7757 64.4415 17.9532C64.3734 17.9543 64.3007 17.955 64.2223 17.955C63.0524 17.955 60.8061 17.8025 59.843 16.7012C59.6473 16.478 59.5063 16.2112 59.4313 15.9223C59.3563 15.6334 59.3495 15.3306 59.4114 15.0386C59.4623 14.7579 59.6417 14.3701 60.2068 14.116C60.7846 13.8562 61.6768 13.8015 62.5216 13.887C60.7662 12.6802 57.2256 11.1044 54.5299 9.90491C52.3046 8.91463 51.1257 8.38295 50.7465 8.06422C47.4986 5.334 42.0093 1.9473 37.2277 1.38838C33.8388 0.991793 31.6458 1.04771 29.3233 1.10641C28.8408 1.11857 28.3518 1.131 27.8445 1.13959C20.027 1.2735 16.3068 3.44599 11.5968 6.19644C10.5862 6.78656 9.54126 7.39677 8.40234 8.01782C7.59924 8.43109 6.77094 8.79183 5.92252 9.09786C4.51808 9.63986 3.19164 10.1513 2.56371 10.9647C3.13083 10.9625 3.80082 11.0579 4.3385 11.4176C4.97815 11.845 5.17883 12.8543 4.78608 13.6678C4.2437 14.7915 2.3672 15.2098 1.31175 15.2098H1.0965C1.01584 16.4344 1.02789 17.6636 1.13257 18.8864Z" fill="#00489A"/>
<path d="M18.8604 4.26176C18.8692 4.25753 18.8778 4.25303 18.8864 4.24933C19.1993 4.102 19.5204 3.97334 19.848 3.86398C25.3855 2.02806 33.6787 2.50912 35.2849 2.62439C38.3418 2.85664 41.3163 3.73906 44.0154 5.21435C45.0962 5.81174 46.9937 6.94968 47.5704 7.8609C47.6927 8.07845 47.757 8.3246 47.757 8.57508C47.757 8.82556 47.6927 9.07172 47.5704 9.28927C47.436 9.533 47.2378 9.73421 46.9977 9.87062C46.7575 10.007 46.4849 10.0733 46.21 10.0621H46.2049L19.3834 9.7957C19.2792 9.7957 19.1787 9.7957 19.0794 9.79478H19.0784C18.257 9.80439 17.4359 9.76227 16.6197 9.66866C16.4092 9.63832 16.2077 9.56234 16.0288 9.44589C15.8499 9.32945 15.6978 9.17526 15.5828 8.99382C15.4678 8.81238 15.3927 8.60793 15.3624 8.39437C15.3322 8.18082 15.3477 7.96316 15.4077 7.7562C15.8697 6.15135 17.3958 4.95486 18.8604 4.26176ZM19.6006 5.08533V8.74026L30.6017 8.84958V3.54143C26.9868 3.57143 23.0176 3.92598 20.172 4.86946C19.9788 4.9337 19.7882 5.00558 19.6006 5.08494V5.08533ZM46.2132 9.00452C46.2992 9.01425 46.386 8.99917 46.4639 8.961C46.5417 8.92283 46.6074 8.86314 46.6533 8.78877C46.6847 8.73582 46.7047 8.67666 46.7119 8.61525C46.719 8.55384 46.7132 8.49159 46.6948 8.43264C46.3795 7.93466 45.1321 7.036 43.5174 6.14302C40.9496 4.73963 38.1197 3.90026 35.2116 3.67944C34.1341 3.60224 32.9211 3.55187 31.6428 3.54077V8.8599L46.2132 9.00452ZM16.4609 8.42365C16.4945 8.47723 16.5391 8.52273 16.5918 8.55698C16.6444 8.59123 16.7038 8.6134 16.7658 8.62194C17.3609 8.69312 17.9595 8.72976 18.5588 8.73167V5.61874C17.5531 6.23186 16.6883 7.0787 16.4083 8.05245C16.39 8.11448 16.3852 8.17983 16.3943 8.24395C16.4033 8.30806 16.4261 8.36938 16.4609 8.42365ZM33.3512 12.0049H35.1756C35.3138 12.0049 35.4463 12.0607 35.544 12.1598C35.6416 12.259 35.6965 12.3935 35.6965 12.5337C35.6965 12.674 35.6416 12.8085 35.544 12.9076C35.4463 13.0068 35.3138 13.0625 35.1756 13.0625H33.3512C33.2131 13.0625 33.0806 13.0068 32.9829 12.9076C32.8852 12.8085 32.8303 12.674 32.8303 12.5337C32.8303 12.3935 32.8852 12.259 32.9829 12.1598C33.0806 12.0607 33.2131 12.0049 33.3512 12.0049ZM17.2745 11.7406H19.0565C19.1947 11.7406 19.3271 11.7963 19.4248 11.8954C19.5225 11.9946 19.5774 12.1291 19.5774 12.2693C19.5774 12.4096 19.5225 12.5441 19.4248 12.6432C19.3271 12.7424 19.1947 12.7981 19.0565 12.7981H17.2745C17.1364 12.7981 17.0039 12.7424 16.9062 12.6432C16.8085 12.5441 16.7537 12.4096 16.7537 12.2693C16.7537 12.1291 16.8085 11.9946 16.9062 11.8954C17.0039 11.7963 17.1364 11.7406 17.2745 11.7406ZM31.1226 11.4899C31.2608 11.4899 31.3932 11.5456 31.4909 11.6448C31.5886 11.744 31.6435 11.8785 31.6435 12.0187V18.9986C31.6435 19.1388 31.5886 19.2733 31.4909 19.3725C31.3932 19.4717 31.2608 19.5274 31.1226 19.5274C30.9845 19.5274 30.852 19.4717 30.7543 19.3725C30.6566 19.2733 30.6017 19.1388 30.6017 18.9986V12.0187C30.6017 11.8785 30.6566 11.744 30.7543 11.6448C30.852 11.5456 30.9845 11.4899 31.1226 11.4899ZM53.0207 17.5234C53.5014 17.5234 53.9712 17.6681 54.3708 17.9391C54.7705 18.2102 55.082 18.5954 55.2659 19.0462C55.4499 19.497 55.498 19.993 55.4042 20.4715C55.3105 20.95 55.0791 21.3896 54.7392 21.7346C54.3994 22.0796 53.9664 22.3146 53.495 22.4098C53.0236 22.505 52.535 22.4561 52.0909 22.2694C51.6469 22.0827 51.2674 21.7665 51.0003 21.3609C50.7333 20.9552 50.5908 20.4782 50.5908 19.9903C50.5915 19.3363 50.8477 18.7093 51.3033 18.2468C51.7588 17.7844 52.3765 17.5242 53.0207 17.5234ZM53.0207 21.3995C53.2953 21.3995 53.5637 21.3169 53.7921 21.1621C54.0204 21.0072 54.1984 20.7871 54.3034 20.5296C54.4085 20.272 54.436 19.9887 54.3825 19.7153C54.3289 19.4419 54.1967 19.1907 54.0025 18.9936C53.8084 18.7965 53.561 18.6623 53.2917 18.6079C53.0224 18.5536 52.7432 18.5815 52.4895 18.6882C52.2358 18.7948 52.019 18.9755 51.8665 19.2073C51.7139 19.4391 51.6325 19.7116 51.6326 19.9903C51.633 20.3639 51.7794 20.7221 52.0396 20.9863C52.2999 21.2504 52.6527 21.3991 53.0207 21.3995ZM13.149 17.5234C13.6296 17.5234 14.0994 17.6681 14.4991 17.9392C14.8987 18.2102 15.2102 18.5955 15.3941 19.0463C15.578 19.497 15.6261 19.9931 15.5324 20.4716C15.4386 20.9501 15.2072 21.3897 14.8673 21.7347C14.5275 22.0797 14.0945 22.3146 13.6231 22.4098C13.1517 22.505 12.6631 22.4561 12.219 22.2694C11.775 22.0827 11.3955 21.7665 11.1285 21.3608C10.8614 20.9552 10.7189 20.4782 10.7189 19.9903C10.7196 19.3363 10.9759 18.7092 11.4315 18.2468C11.887 17.7843 12.5047 17.5242 13.149 17.5234ZM13.149 21.3995C13.4236 21.3995 13.692 21.3169 13.9203 21.162C14.1486 21.0071 14.3265 20.787 14.4316 20.5295C14.5367 20.2719 14.5642 19.9886 14.5106 19.7152C14.457 19.4418 14.3248 19.1907 14.1306 18.9936C13.9364 18.7965 13.6891 18.6623 13.4198 18.6079C13.1504 18.5536 12.8713 18.5815 12.6176 18.6882C12.3639 18.7949 12.1471 18.9755 11.9946 19.2073C11.8421 19.4391 11.7607 19.7116 11.7607 19.9903C11.7611 20.3639 11.9076 20.7221 12.1678 20.9863C12.4281 21.2505 12.7809 21.3991 13.149 21.3995Z" fill="#DC3D3D"/>
</svg>
